<svg width="20" height="20" viewBox="0 0 30 30" fill="none" xmlns="http://www.w3.org/2000/svg">
<path d="M13.5005 12.5C13.7766 12.5 14.0004 12.2761 14.0004 12C14.0004 11.7238 13.7766 11.5 13.5005 11.5C13.2243 11.5 13.0005 11.7238 13.0005 12C13.0005 12.2761 13.2243 12.5 13.5005 12.5Z" fill="#231F20"/>
<path d="M13.5005 16C13.7766 16 14.0004 15.7761 14.0004 15.5C14.0004 15.2238 13.7766 15 13.5005 15C13.2243 15 13.0005 15.2238 13.0005 15.5C13.0005 15.7761 13.2243 16 13.5005 16Z" fill="#231F20"/>
<path d="M13.5005 19.5C13.7766 19.5 14.0004 19.2761 14.0004 19C14.0004 18.7238 13.7766 18.5 13.5005 18.5C13.2243 18.5 13.0005 18.7238 13.0005 19C13.0005 19.2761 13.2243 19.5 13.5005 19.5Z" fill="#231F20"/>
<path d="M13.5005 23C13.7766 23 14.0004 22.7761 14.0004 22.5C14.0004 22.2238 13.7766 22 13.5005 22C13.2243 22 13.0005 22.2238 13.0005 22.5C13.0005 22.7761 13.2243 23 13.5005 23Z" fill="#231F20"/>
<path d="M22.5 12.5H18.5C18.2238 12.5 18 12.7238 18 13V18C18 18.2761 18.2238 18.4999 18.5 18.4999H22.5C22.7762 18.4999 23 18.2761 23 18V13C23 12.7238 22.7762 12.5 22.5 12.5ZM22 17.5H19V13.5H22V17.5Z" fill="#231F20"/>
<path d="M27.5002 5.50002H26V3.99979C26 3.1715 25.3285 2.49978 24.5 2.49978H19.44C19.4387 2.49978 19.4375 2.4999 19.4362 2.4999H19.4245C18.9647 1.00658 16.4621 0 13.5002 0C10.5383 0 8.03576 1.00658 7.57604 2.4999H7.56432C7.56303 2.4999 7.5618 2.49978 7.56051 2.49978H2.5C1.67184 2.49978 1 3.17162 1 3.99979V25.4998C1 26.3283 1.67172 26.9998 2.5 26.9998H4.00023V28.5C4.00023 29.3286 4.6716 30 5.50023 30H27.5003C28.3289 30 29.0003 29.3286 29.0003 28.5V7.00002C29.0002 6.17139 28.3289 5.50002 27.5002 5.50002ZM7.56238 3.49992C7.70131 3.50045 7.83449 3.55934 7.92906 3.6624L10.5141 6.48246L9.47348 8.82791L6.80951 3.49992H7.56238ZM19.0714 3.66229C19.166 3.55928 19.2992 3.50045 19.438 3.49992H20.1909L17.527 8.82791L16.4863 6.48246L19.0714 3.66229ZM13.5002 1.00002C16.1329 1.00002 18.2451 1.89146 18.4787 2.82861L15.5279 6.04805L15.5278 6.04811L13.8682 7.85854C13.67 8.07398 13.3304 8.07398 13.1322 7.85854L11.4726 6.04811C11.4726 6.04811 11.4726 6.04805 11.4725 6.04805L8.52168 2.82861C8.75535 1.89146 10.8675 1.00002 13.5002 1.00002ZM1.99996 25.4998V3.99979C1.99996 3.72393 2.22408 3.4998 2.49994 3.4998H5.69137L9.05324 10.2235C9.24227 10.6016 9.78607 10.5891 9.95746 10.2027L11.2513 7.28666L12.3943 8.53365C12.3947 8.53412 12.3952 8.53453 12.3956 8.535L13.1315 9.33785C13.3297 9.55406 13.6705 9.55406 13.8687 9.33785L14.6047 8.53494C14.6051 8.53453 14.6055 8.53412 14.6059 8.53365L15.749 7.2866L17.0429 10.2026C17.2143 10.589 17.758 10.6015 17.9471 10.2234L21.3091 3.4998H24.5C24.7762 3.4998 25 3.72375 25 3.99979V25.4998C25 25.7761 24.7763 25.9997 24.5 25.9997H2.5C2.22391 25.9998 1.99996 25.776 1.99996 25.4998ZM28.0002 28.5C28.0002 28.7763 27.7766 29 27.5003 29H5.50023C5.22391 29 5.00025 28.7763 5.00025 28.5V27H24.5003C25.3289 27 26.0003 26.3286 26.0003 25.5V6.49998H27.5003C27.7766 6.49998 28.0002 6.72363 28.0002 6.99996V28.5Z" fill="#231F20"/>
</svg>
