<svg width="20" height="20" viewBox="0 0 30 30" fill="none" xmlns="http://www.w3.org/2000/svg">
<path d="M13.6969 11.2622L13.8125 10.0403C13.825 9.91216 13.9407 9.81841 14.0688 9.82779C14.1969 9.84029 14.2907 9.95591 14.2813 10.084L14.1657 11.3059C14.1532 11.4278 14.0532 11.5184 13.9313 11.5184C13.925 11.5184 13.9157 11.5184 13.9094 11.5184C13.7782 11.5028 13.6844 11.3903 13.6969 11.2622ZM15.0625 11.4372C15.0657 11.4372 15.0657 11.4372 15.0625 11.4372C15.1938 11.4372 15.2969 11.3309 15.2969 11.1997L15.2844 9.99341C15.2844 9.86529 15.1782 9.76216 15.05 9.76216H15.0469C14.9188 9.76216 14.8125 9.86841 14.8157 9.99966L14.8282 11.2059C14.8313 11.334 14.9344 11.4372 15.0625 11.4372ZM9.82504 16.4278C10.0907 16.209 10.4688 16.1715 11.0938 16.1122H11.1C13.3157 15.8997 15.5688 15.7247 17.7907 15.5965C18.225 15.5715 18.7188 15.5434 19.1969 15.6465C19.7563 15.7684 20.2 16.0559 20.4532 16.459C20.775 16.9778 20.7407 17.6278 20.7125 18.1059L20.5407 21.209C20.5188 21.584 20.4907 22.0965 20.1875 22.4778C19.8125 22.9497 19.2032 23.0465 18.5688 23.0465C18.4844 23.0465 18.4 23.0434 18.3157 23.0434L11.4438 22.8215C10.8782 22.8028 10.2938 22.7528 9.88442 22.359C9.50004 21.9903 9.40629 21.4465 9.36254 20.9153C9.29379 20.0809 9.28442 19.2372 9.33442 18.3965C9.33442 18.3934 9.33442 18.3903 9.33442 18.3872C9.34692 18.1528 9.36567 17.9184 9.38754 17.684C9.45942 17.0372 9.54379 16.6622 9.82504 16.4278ZM20.2282 18.4215C17.3032 18.484 14.375 18.5465 11.45 18.609L11.525 19.5747C11.5375 19.7309 11.5594 20.0215 11.3657 20.2247C11.1844 20.4153 10.9094 20.4215 10.7625 20.4215C10.75 20.4215 10.7375 20.4215 10.725 20.4215C10.5875 20.4215 10.3407 20.4059 10.2032 20.1965C10.1094 20.0559 10.1219 19.8934 10.1313 19.7997L10.2219 18.6372C10.0813 18.6403 9.94067 18.6434 9.80004 18.6465C9.76567 19.3934 9.77817 20.1434 9.83754 20.884C9.87192 21.2934 9.93129 21.7528 10.2157 22.0247C10.5063 22.3028 10.9719 22.3403 11.4657 22.3559L18.3375 22.5778C19.35 22.609 19.65 22.4122 19.825 22.1903C20.0188 21.9434 20.0532 21.5903 20.075 21.184L20.2282 18.4215ZM10.5938 19.934C10.6094 19.9403 10.65 19.9528 10.7532 19.9497C10.8313 19.9497 10.9782 19.9465 11.025 19.8965C11.075 19.8434 11.0625 19.684 11.0563 19.609L10.9782 18.6184C10.8813 18.6215 10.7875 18.6215 10.6907 18.6247L10.5969 19.834C10.5938 19.8559 10.5907 19.9122 10.5938 19.934ZM9.82504 18.1747C13.3 18.0997 16.775 18.0247 20.2532 17.9528C20.275 17.4715 20.2625 17.0434 20.0563 16.7122C19.875 16.4215 19.5282 16.2028 19.1 16.109C18.8782 16.0622 18.6438 16.0465 18.4125 16.0465C18.2094 16.0465 18.0094 16.059 17.8188 16.0684C15.6032 16.1965 13.3563 16.3684 11.1469 16.5809H11.1407C10.6032 16.634 10.2782 16.6653 10.125 16.7903C9.98754 16.9028 9.92192 17.1497 9.86254 17.734C9.84692 17.8809 9.83442 18.0278 9.82504 18.1747ZM5.55317 22.3122C4.62504 17.709 4.78129 12.9747 5.02192 8.51841C5.05942 7.81216 5.11567 7.18091 5.39692 6.59654C5.57192 6.23404 5.83129 5.92154 6.14379 5.67779C6.60942 5.17779 7.30629 4.88716 8.10317 4.59029C8.57192 4.41529 9.13129 4.23091 9.70629 4.19654C10.0719 4.17466 10.9844 4.16841 11.5375 4.58091C11.8032 4.78091 11.9969 4.99966 12.2032 5.27779C12.1969 5.12154 12.1938 4.96529 12.2 4.80904C12.2313 3.96841 12.4907 3.36841 12.9907 2.97779C13.2938 2.74029 13.725 2.59029 14.2094 2.54966C14.5875 2.51841 14.9907 2.49654 15.4 2.55591C15.8438 2.61841 16.3063 2.70279 16.6782 2.98716C17.1313 3.33404 17.3938 3.95591 17.4125 4.73404C17.4125 4.78716 17.4125 4.84029 17.4125 4.89341C17.5719 4.69029 17.7688 4.53091 18.0344 4.39654C18.5782 4.12466 19.0782 4.04654 19.7094 4.01216C20.5969 3.96216 21.3282 4.21841 22.1938 4.55591C23.0594 4.89654 23.7032 5.68091 24.3375 6.52466C24.3563 6.54966 24.3719 6.58091 24.3782 6.60904C24.4907 6.73716 24.5844 6.86841 24.6532 7.00591C24.9875 7.67466 25.0188 8.43716 25.0438 9.11216C25.2032 13.0872 25.3688 17.1997 24.2438 21.1278C23.9219 22.2528 23.4907 23.3559 22.9657 24.409L22.925 25.0372C22.925 25.059 22.9219 25.084 22.9219 25.1153C22.9094 25.3934 22.8875 25.9684 22.6 26.4934C22.1532 27.3153 21.3407 27.4934 20.7219 27.4934C20.7063 27.4934 20.6907 27.4934 20.6782 27.4934C19.0219 27.4715 17.8532 27.4653 16.5 27.4622C15.1719 27.4559 13.6688 27.4528 11.4063 27.4247C11.2625 27.4215 11.0688 27.4278 10.8438 27.4309C9.05942 27.4684 7.26879 27.4403 6.71254 26.684C6.33129 26.1653 6.23754 25.2622 6.22817 24.3434C5.89379 23.5872 5.71254 23.1059 5.55317 22.3122ZM22.4125 24.6965C17.2032 24.4465 11.9219 24.384 6.70317 24.5153C6.72192 25.2809 6.80942 26.0153 7.09379 26.3997C7.22504 26.5747 7.59692 26.8059 8.63442 26.909C9.38442 26.984 10.225 26.9653 10.8375 26.9528C11.0313 26.9497 11.2 26.9465 11.3375 26.9465C11.3625 26.9465 11.3907 26.9465 11.4125 26.9465C13.675 26.9715 15.1782 26.9778 16.5032 26.984C17.8594 26.9903 19.0282 26.9934 20.6844 27.0153C20.6969 27.0153 20.7125 27.0153 20.725 27.0153C22.2 27.0153 22.4188 25.9153 22.4532 25.0872C22.4532 25.0528 22.4563 25.0215 22.4563 24.9965L22.4719 24.7684C22.4782 24.7184 22.5063 24.6965 22.4125 24.6965ZM22.2438 5.99341C22.6375 6.97154 22.9125 8.00279 23.0563 9.06216C23.2157 10.2434 23.2125 11.434 23.0407 12.5997C23.1094 12.9122 23.1657 13.2403 23.2125 13.5872C23.5282 15.9934 23.3657 18.4403 23.2094 20.809L23.0594 23.0903C23.3469 22.4059 23.5969 21.7028 23.8 20.9903C24.9032 17.1372 24.7407 13.0622 24.5813 9.12466C24.5563 8.49966 24.5282 7.79029 24.2375 7.20904C23.9813 6.70279 23.1219 6.16529 22.2438 5.99341ZM21.7125 5.94029C21.6157 5.94029 21.5188 5.94654 21.4219 5.95591C20.4344 6.08091 19.8657 6.44029 19.6469 7.08404C19.9375 7.31841 20.2063 7.57779 20.45 7.85904C21.45 9.00279 22.2 10.0497 22.6844 11.3778C22.775 9.52466 22.4375 7.63716 21.7125 5.94029ZM17.4313 5.87779C17.4438 5.88091 17.4532 5.88404 17.4657 5.88716C18.1125 6.10279 18.7157 6.40904 19.2625 6.79029C19.4125 6.43716 19.6563 6.15279 19.9875 5.94029C20.3438 5.71216 20.7938 5.56529 21.3657 5.49341C21.525 5.47466 21.7 5.47154 21.8813 5.48404C21.8875 5.48404 21.8907 5.48404 21.8969 5.48404C22.2844 5.51216 22.7125 5.61529 23.1188 5.77779C22.7844 5.43091 22.4282 5.14966 22.025 4.99341C21.1875 4.66529 20.5344 4.43716 19.7375 4.48091C19.1532 4.51216 18.7219 4.57779 18.2469 4.81529C17.8563 5.00591 17.6563 5.26216 17.4313 5.87779ZM15.5 3.03716C15.6 3.20591 15.6563 3.37154 15.6844 3.45904C15.7594 3.68716 15.825 3.92466 15.875 4.15904V4.16216C15.975 4.62154 16.025 5.09029 16.025 5.55904C16.3219 5.59654 16.6157 5.65279 16.9032 5.72466C16.9063 5.63091 16.9125 5.53404 16.9188 5.44341C16.9344 5.19966 16.9469 4.97154 16.9407 4.74029C16.9313 4.37154 16.85 3.70279 16.3907 3.35279C16.1532 3.16841 15.8375 3.09029 15.5 3.03716ZM13.9688 3.99029C14.4094 3.94029 14.8969 3.92779 15.3438 3.95279C15.3125 3.83716 15.2782 3.72154 15.2407 3.60904C15.125 3.26529 14.9875 3.07466 14.8188 3.02466C14.6813 2.98404 14.5094 3.04029 14.375 3.16841C14.2219 3.31529 14.1282 3.53091 14.0657 3.70279C14.0282 3.79341 13.9969 3.89029 13.9688 3.99029ZM13.8594 4.47466C13.8 4.83716 13.7907 5.20279 13.825 5.56529C13.8407 5.56216 13.8594 5.56216 13.875 5.55904C14.4375 5.48716 15.0032 5.47154 15.5563 5.51216C15.5532 5.14966 15.5188 4.78404 15.45 4.42779C14.9407 4.39029 14.3594 4.40904 13.8594 4.47466ZM12.7094 5.79966C12.925 5.73716 13.1438 5.68716 13.3625 5.64341C13.3125 5.16841 13.3344 4.69341 13.4282 4.22154C13.4282 4.21841 13.4282 4.21841 13.4282 4.21529V4.21216C13.475 3.98091 13.5407 3.75591 13.6219 3.53716C13.6719 3.39654 13.7407 3.23404 13.8407 3.08091C13.6188 3.14029 13.425 3.22779 13.275 3.34341C12.8907 3.64341 12.6907 4.12779 12.6625 4.82154C12.6563 5.14654 12.6813 5.46529 12.7094 5.79966ZM10.4532 7.43404C10.4375 7.44966 10.4219 7.46216 10.4032 7.47154C9.50004 8.16529 8.75629 9.08091 8.23129 10.1778C7.10317 12.5215 6.84379 14.2497 6.73754 16.8059C6.73754 17.434 6.72817 18.0715 6.71879 18.6872C6.70317 19.834 6.68442 21.0215 6.72817 22.1872C6.73754 22.4559 6.72817 22.7934 6.71567 23.1809C6.70629 23.4528 6.70004 23.7465 6.69692 24.0497C11.95 23.9184 17.2688 23.9809 22.5125 24.234L22.7407 20.7809C22.8969 18.4372 23.0563 16.0122 22.7469 13.6528C22.4282 11.2215 21.5719 9.84966 20.1 8.16841C19.8407 7.87154 19.5563 7.60279 19.2469 7.36216C19.2375 7.35591 19.2282 7.34966 19.2219 7.34341C18.6594 6.90904 18.025 6.57154 17.3157 6.33716C16.2657 5.98716 15.0969 5.87779 13.9344 6.03091C13.4688 6.09029 13.0219 6.19029 12.5907 6.33091C12.5844 6.33404 12.5594 6.34029 12.5532 6.34341C11.7907 6.58716 11.0844 6.95591 10.4532 7.43404ZM8.10942 5.08716C8.14067 5.09029 8.16879 5.09341 8.20004 5.09654C8.30942 5.11216 8.42192 5.13716 8.53442 5.17466H8.53754C8.53754 5.17466 8.53754 5.17466 8.54067 5.17466C9.28129 5.41529 10.0094 6.10279 10.3907 6.89966C10.9282 6.52154 11.5157 6.21529 12.1375 5.98716C11.8 5.49966 11.5938 5.20279 11.2594 4.94966C10.9625 4.72779 10.3938 4.61841 9.73754 4.65904C9.22504 4.69029 8.72817 4.85279 8.27192 5.02466C8.21254 5.04654 8.15942 5.06841 8.10942 5.08716ZM7.85004 9.76529C7.84692 9.80904 7.84692 9.85591 7.84379 9.89966C8.36567 8.83716 9.10942 7.90904 10.0032 7.19341C9.71567 6.54341 9.14692 5.94966 8.55942 5.69029C7.96879 6.68716 7.90942 8.18404 7.85004 9.76529ZM6.01254 22.2215C6.08129 22.559 6.15004 22.8372 6.25004 23.1309C6.25942 22.7809 6.26879 22.4497 6.25942 22.2028C6.21567 21.0247 6.23442 19.8309 6.25004 18.6778C6.25942 18.0622 6.26879 17.4278 6.26879 16.7997C6.26879 16.7965 6.26879 16.7934 6.26879 16.7903C6.35942 14.584 6.56254 12.9809 7.31567 11.084C7.34379 10.634 7.36254 10.184 7.37817 9.74654C7.44067 8.15904 7.49692 6.65279 8.09067 5.55904C7.18442 5.44966 6.21254 5.97779 5.81567 6.79966C5.57192 7.30904 5.52192 7.89029 5.48754 8.54341C5.25317 12.9715 5.09692 17.6715 6.01254 22.2215ZM11.9782 10.9247C11.9 10.8434 11.8907 10.7215 11.9532 10.6278C12.6 9.68091 13.3875 8.84341 14.2907 8.13404C14.3813 8.06216 14.5125 8.06841 14.5969 8.14966C14.8657 8.40279 15.1438 8.64966 15.4125 8.89029C15.9719 9.38716 16.55 9.89654 17.0594 10.4903C17.1407 10.584 17.1344 10.7247 17.0438 10.8122C16.6532 11.1903 16.2657 11.6247 15.8907 12.0434C15.5094 12.4684 15.1188 12.909 14.7125 13.2997C14.6688 13.3434 14.6094 13.3653 14.55 13.3653C14.5032 13.3653 14.4532 13.3497 14.4125 13.3215C13.775 12.8622 13.225 12.2653 12.6438 11.6372C12.4313 11.4028 12.2094 11.1622 11.9782 10.9247ZM12.45 10.7403C12.6344 10.934 12.8157 11.1309 12.9907 11.3184C13.5063 11.8778 13.9969 12.4059 14.5313 12.8247C14.875 12.4809 15.2125 12.1028 15.5407 11.734C15.8688 11.3653 16.2094 10.984 16.5563 10.634C16.1032 10.1372 15.6125 9.70279 15.0969 9.24341C14.875 9.04654 14.6438 8.84341 14.4188 8.63404C13.6719 9.24341 13.0094 9.94966 12.45 10.7403Z" fill="black"/>
</svg>
