<svg width="30" height="30" viewBox="0 0 30 30" fill="none" xmlns="http://www.w3.org/2000/svg">
<path d="M11.4687 5.50002C11.1687 5.50002 10.9687 5.30004 10.9687 5.00004C10.9687 3.00006 9.96869 1.00002 8.96873 1.00002C8.66873 1.00002 8.46875 0.800039 8.46875 0.500039C8.46875 0.200039 8.66873 0 8.96873 0C10.7188 0 11.9687 2.65002 11.9687 4.99998C11.9687 5.25 11.7687 5.50002 11.4687 5.50002Z" fill="white"/>
<path d="M19.4687 5.49996C19.1687 5.49996 18.9688 5.29998 18.9688 4.99998C18.9688 2.64996 20.2187 0 21.9687 0C22.2687 0 22.4687 0.19998 22.4687 0.49998C22.4687 0.79998 22.2687 0.999961 21.9687 0.999961C20.9687 0.999961 19.9688 2.99994 19.9688 4.99998C19.9687 5.24994 19.7687 5.49996 19.4687 5.49996Z" fill="white"/>
<path d="M27.9688 28.45C25.7188 26.2 23.7688 23.25 22.1688 20.5H21.9688C18.3688 20.5 14.9688 17.6 14.9688 14C14.9688 17.6 11.5687 20.5 7.96875 20.5H7.76877C6.16875 23.25 4.21875 26.2 1.96875 28.45C1.96875 28.45 1.96875 28.45 2.01873 28.5C7.71873 28.5 12.6187 25.3 14.9687 20.5C17.3188 25.2499 22.2688 28.5 27.9188 28.5C27.9688 28.45 27.9688 28.45 27.9688 28.45Z" fill="white"/>
<path d="M14.9692 9.99998L11.7192 5.3C11.5692 5.10002 11.3692 5 11.1192 5C10.7692 5 10.4692 5.25002 10.3692 5.6L9.6692 8.49998C9.5192 9.09998 9.6692 9.69998 9.9692 10.2L10.0192 10.2499C10.6692 10.9999 10.9692 12.45 10.9692 13.9999C13.1692 13.9999 14.9692 12.1999 14.9692 9.99998Z" fill="white"/>
<path d="M19.9188 10.2C20.2687 9.69998 20.3687 9.09998 20.2187 8.49998L19.5688 5.6C19.4688 5.25002 19.1688 5 18.8188 5C18.5688 5 18.3188 5.10002 18.2188 5.3L14.9688 9.99998C14.9688 12.2 16.7688 14 18.9688 14C19.0188 12.6499 19.3188 11.25 19.9188 10.2Z" fill="white"/>
<path d="M14.9688 10C14.9688 12.2 13.1688 14 10.9688 14H18.9687C16.7688 14 14.9688 12.2 14.9688 10Z" fill="white"/>
<path d="M27.9188 28.4L27.9687 28.45C27.9687 28.45 27.9687 28.45 27.9188 28.5C22.2687 28.5 17.3187 25.25 14.9688 20.5C12.6188 25.25 7.66875 28.5 2.01873 28.5C1.96875 28.4501 1.96875 28.4501 1.96875 28.4501C1.96875 28.4501 2.96877 30.45 7.46877 28.95C7.46877 28.95 9.61875 28.25 11.5188 28.6001C12.3688 28.8 13.2688 29.0001 14.1688 29.0001H14.9688H15.7687C16.6687 29.0001 17.5188 28.8001 18.4188 28.6001C20.3188 28.2 22.4688 28.95 22.4688 28.95C26.9688 30.45 27.9688 28.4501 27.9688 28.4501C27.9687 28.4 27.9188 28.4 27.9188 28.4Z" fill="white"/>
<path d="M21.9688 20.5H22.1687C20.7187 17.95 19.6187 15.55 18.9688 14H16.4688H14.9688C14.9688 17.5999 18.3688 20.5 21.9688 20.5Z" fill="white"/>
<path d="M21.1689 20.5C22.7189 23.25 24.719 26.2 26.969 28.45C27.269 28.45 27.6189 28.5 27.969 28.5C27.969 28.45 28.019 28.45 28.019 28.45C25.769 26.2 23.819 23.25 22.2189 20.5H21.9689H21.1689Z" fill="black"/>
<path d="M20.2685 8.49998L19.6185 5.6C19.5185 5.25002 19.2185 5 18.8685 5C18.6685 5 18.5185 5.04998 18.3685 5.19998C18.4686 5.3 18.5685 5.45 18.6186 5.6L19.2685 8.49998C19.4185 9.09998 19.2685 9.69998 18.9685 10.2L18.9186 10.2499C18.3685 11.1999 18.0685 12.5499 18.0186 13.8999C18.3186 13.9999 18.6685 13.9999 18.9685 13.9999C19.0185 12.6499 19.3185 11.25 19.8685 10.2499L19.9185 10.2C20.2685 9.69998 20.3685 9.09998 20.2685 8.49998Z" fill="black"/>
<path d="M18.9688 14H17.9688C18.6187 15.55 19.7188 17.9 21.1687 20.45C21.4188 20.5 21.7188 20.5 21.9687 20.5H22.1687C20.7188 17.95 19.6188 15.55 18.9688 14Z" fill="black"/>
<path d="M8.76879 20.5C7.16877 23.25 5.21877 26.2 2.96877 28.45C2.66877 28.45 2.31879 28.5 1.96875 28.5C1.96875 28.45 1.96875 28.45 1.96875 28.45C4.21875 26.2 6.16875 23.25 7.76877 20.5H7.96875H8.76879Z" fill="white"/>
<path d="M9.71888 8.49998L10.3689 5.6C10.4689 5.25002 10.7689 5 11.1189 5C11.3188 5 11.4688 5.04998 11.6188 5.19998C11.5188 5.3 11.4189 5.45 11.3688 5.6L10.6688 8.49998C10.5188 9.09998 10.6688 9.69998 10.9688 10.2L11.0188 10.2499C11.5688 11.1999 11.8688 12.5499 11.9188 13.8999C11.6188 13.9499 11.3188 13.9999 10.9688 13.9999C10.9188 12.6499 10.6188 11.25 10.0688 10.2499L10.0188 10.2C9.66884 9.69998 9.56888 9.09998 9.71888 8.49998Z" fill="white"/>
<path d="M7.96951 20.5C11.5695 20.5 14.9695 17.6 14.9695 14H13.4695H10.9695C10.3195 15.55 9.21949 17.95 7.76953 20.5H7.96951Z" fill="white"/>
<path d="M10.9695 14H11.9695C11.3195 15.55 10.2195 17.9 8.76949 20.45C8.51947 20.5 8.26951 20.5 7.96951 20.5H7.76953C9.21943 17.95 10.3195 15.55 10.9695 14Z" fill="white"/>
<path d="M10.9687 5.50002C10.6687 5.50002 10.4687 5.30004 10.4687 5.00004C10.4687 3.00006 9.46869 1.00002 8.46873 1.00002C8.16873 1.00002 7.96875 0.800039 7.96875 0.500039C7.96875 0.200039 8.16867 0 8.46867 0C10.2187 0 11.4687 2.65002 11.4687 4.99998C11.4687 5.25 11.2687 5.50002 10.9687 5.50002Z" fill="black"/>
<path d="M18.9687 5.49996C18.6687 5.49996 18.4688 5.29998 18.4688 4.99998C18.4688 2.64996 19.7187 0 21.4687 0C21.7687 0 21.9687 0.19998 21.9687 0.49998C21.9687 0.79998 21.7687 0.999961 21.4687 0.999961C20.4687 0.999961 19.4688 2.99994 19.4688 4.99998C19.4688 5.24994 19.2687 5.49996 18.9687 5.49996Z" fill="black"/>
<path d="M25.4187 30.0005C24.5187 30.0005 23.4687 29.8005 22.3187 29.4005C22.3187 29.4005 21.0186 29.0005 19.6686 29.0005C19.2686 29.0005 18.8687 29.0504 18.5186 29.1005L18.3686 29.1505C17.5186 29.3504 16.6686 29.5004 15.8186 29.5004H14.1686C13.2686 29.5004 12.4186 29.3005 11.6186 29.1505L11.4686 29.1005C11.1186 29.0505 10.7686 29.0005 10.3186 29.0005C8.91862 29.0005 7.66859 29.4005 7.66859 29.4005C6.46859 29.8005 5.41859 30.0005 4.51859 30.0005C2.61857 30.0005 1.81859 29.1505 1.61861 28.8005C1.61861 28.8005 1.61861 28.8005 1.61861 28.7505V28.7005V28.6505C1.51859 28.4005 1.56862 28.1005 1.81859 28.0006C1.96859 27.9005 2.11859 27.9005 2.26859 28.0006C7.56857 27.9005 12.2686 24.9506 14.5686 20.3006C14.7186 19.9506 15.3186 19.9506 15.4686 20.3006C17.7686 24.9506 22.4186 27.9006 27.6686 28.0006C27.8685 27.8506 28.1186 27.8506 28.2686 28.0006C28.2686 28.0006 28.3185 28.0006 28.3185 28.0505L28.3685 28.1005C28.5185 28.2505 28.5685 28.5005 28.4685 28.7005C28.4685 28.7005 28.4685 28.7505 28.4186 28.7505C28.4186 28.7505 28.4186 28.7505 28.4186 28.8005C28.4186 28.8005 28.4186 28.8505 28.3686 28.8505C28.0687 29.1505 27.3187 30.0005 25.4187 30.0005ZM19.6687 28.0005C21.2187 28.0005 22.5687 28.4505 22.6187 28.4505C23.6687 28.8005 24.6187 29.0005 25.4187 29.0005C25.7687 29.0005 26.0687 28.9505 26.3187 28.9005C21.5687 28.4005 17.3687 25.7005 14.9687 21.5505C12.5687 25.7005 8.4187 28.4005 3.6187 28.9005C3.86872 28.9505 4.16872 29.0005 4.5187 29.0005C5.31868 29.0005 6.26872 28.8005 7.31872 28.4505C7.3687 28.4505 8.76874 28.0005 10.2687 28.0005C10.7687 28.0005 11.2187 28.0505 11.6187 28.1505L11.7687 28.2005C12.5687 28.3505 13.3688 28.5505 14.1188 28.5505H15.7688C16.5687 28.5505 17.3688 28.4005 18.1188 28.2005L18.2688 28.1505C18.7187 28.0505 19.1687 28.0005 19.6687 28.0005Z" fill="black"/>
<path d="M22.1687 21H21.9688C17.9687 21 14.4688 17.75 14.4688 14C14.4688 13.7 14.6687 13.5 14.9687 13.5H18.9688C19.1687 13.5 19.3688 13.6 19.4188 13.8C19.8188 14.75 20.9687 17.35 22.6187 20.25C22.7188 20.4 22.7188 20.6 22.6187 20.75C22.5187 20.9 22.3687 21 22.1687 21ZM15.4687 14.5C15.7687 17.3 18.2687 19.65 21.2687 19.95C19.9687 17.6 19.0187 15.5 18.6187 14.5H15.4687Z" fill="black"/>
<path d="M7.96914 21H7.76915C7.56917 21 7.41917 20.9 7.31916 20.75C7.21914 20.6 7.21914 20.4 7.31916 20.25C8.96916 17.35 10.1192 14.75 10.5191 13.8C10.6192 13.6 10.7692 13.5 10.9691 13.5H14.9692C15.2692 13.5 15.4691 13.7 15.4691 14C15.4691 17.75 11.9692 21 7.96914 21ZM11.3191 14.5C10.8191 15.65 9.91914 17.65 8.6691 19.95C11.6691 19.65 14.2191 17.25 14.4691 14.5H11.3191Z" fill="black"/>
<path d="M27.9191 29C22.5191 29 17.619 26.15 14.9691 21.55C12.3191 26.15 7.41909 29 2.01909 29C1.86909 29 1.66911 28.9 1.61907 28.75L1.56909 28.65C1.41909 28.5 1.46907 28.25 1.61907 28.1C3.51909 26.2 5.46909 23.55 7.31907 20.25C7.41909 20.1 7.56909 20 7.76907 20H7.96905C11.4191 20 14.469 17.2 14.469 14C14.469 13.7 14.669 13.5 14.969 13.5C15.269 13.5 15.469 13.7 15.469 14C15.469 17.2 18.519 20 21.969 20H22.169C22.3689 20 22.5189 20.1 22.619 20.25C24.4689 23.55 26.4189 26.15 28.319 28.1C28.419 28.2 28.469 28.3 28.469 28.45C28.469 28.4999 28.469 28.6 28.419 28.6499C28.419 28.6499 28.369 28.6999 28.319 28.7999C28.269 28.9001 28.119 29 27.9191 29ZM14.9691 20C15.1691 20 15.3191 20.1001 15.4191 20.3C17.6191 24.7 21.9191 27.6001 26.8191 27.95C25.1691 26.15 23.5191 23.8 21.9191 21.0001C18.8691 20.9501 16.0691 19.0001 15.0191 16.4C13.9191 19 11.169 20.95 8.11905 21.0001C6.51903 23.8001 4.86903 26.15 3.21903 27.95C8.11905 27.55 12.419 24.7 14.619 20.3C14.619 20.1001 14.769 20 14.9691 20Z" fill="black"/>
<path d="M10.9693 14.4999C10.6693 14.4999 10.4693 14.2999 10.4693 13.9999C10.4693 12.4499 10.1693 11.1499 9.66931 10.5499L9.61933 10.4999C9.16933 9.84996 9.06931 9.09996 9.21931 8.34996L9.86929 5.44998C9.96931 4.89996 10.4693 4.5 11.0693 4.5C11.4693 4.5 11.8693 4.69998 12.1193 5.05002L15.3693 9.75C15.4193 9.85002 15.4693 9.94998 15.4693 10.05C15.4693 12.4999 13.4693 14.4999 10.9693 14.4999ZM10.4193 9.94986C11.0193 10.6499 11.3692 11.8999 11.4193 13.4999C13.0693 13.2499 14.3693 11.8999 14.4193 10.1999L11.2193 5.6499C11.1193 5.4999 10.8193 5.54988 10.7693 5.74992L10.1193 8.6499C10.0693 9.04986 10.1693 9.5499 10.4193 9.94986Z" fill="black"/>
<path d="M18.9688 14.5C16.4687 14.5 14.4688 12.5 14.4688 9.99996C14.4688 9.89994 14.5187 9.79998 14.5688 9.69996L17.8188 4.99998C18.0688 4.69998 18.4688 4.5 18.8688 4.5C19.4688 4.5 19.9688 4.90002 20.1188 5.50002L20.7688 8.4C20.9188 9.10002 20.7688 9.85002 20.3687 10.5C19.8688 11.35 19.5687 12.65 19.5187 14.05C19.4688 14.2999 19.2688 14.5 18.9688 14.5ZM15.4688 10.15C15.5188 11.8499 16.8688 13.25 18.5188 13.45C18.6188 12.05 18.9687 10.85 19.4687 9.94998L19.5187 9.9C19.7687 9.49998 19.8687 9.04998 19.7687 8.59998L19.1188 5.69994C19.0688 5.49996 18.7688 5.44992 18.6688 5.59992L15.4688 10.15Z" fill="black"/>
<path d="M18.9687 14.4999H10.9687C10.6687 14.4999 10.4688 14.2999 10.4688 13.9999C10.4688 13.6999 10.6687 13.5 10.9687 13.5C12.9187 13.5 14.4687 11.95 14.4687 9.99998C14.4687 9.69998 14.6687 9.5 14.9687 9.5C15.2687 9.5 15.4687 9.69998 15.4687 9.99998C15.4687 11.95 17.0187 13.5 18.9687 13.5C19.2687 13.5 19.4686 13.6999 19.4686 13.9999C19.4687 14.2999 19.2687 14.4999 18.9687 14.4999ZM13.8187 13.4999H16.1687C15.6688 13.0999 15.2687 12.5999 15.0187 12.0499C14.6687 12.5999 14.2687 13.0999 13.8187 13.4999Z" fill="black"/>
</svg>
