<svg width="30" height="30" viewBox="0 0 30 30" fill="none" xmlns="http://www.w3.org/2000/svg">
<g clip-path="url(#clip0_234_4447)">
<path d="M23.7373 22.5294L23.5726 22.3766C19.8052 18.8509 20.7474 14.4388 20.7574 14.3941C20.7772 14.3097 20.7496 14.2294 20.7018 14.1646C20.7178 14.0737 20.7297 14.0108 20.7307 14.0019C21.1482 7.53623 19.9648 3.23858 17.2172 1.23042C14.3274 -0.878086 10.7827 0.325798 10.3294 0.494407C9.9752 0.521613 7.95467 0.770535 6.44533 2.98656C5.18459 4.83751 4.21986 8.24455 5.25253 14.471C5.27191 14.7087 5.27631 14.9343 5.31557 15.1903C5.32307 15.2359 5.35223 15.2672 5.37862 15.3028C3.80933 20.4838 6.46977 25.8504 6.53966 25.9863C6.35916 26.0467 6.18207 26.1093 5.9861 26.1498C5.83085 26.1806 5.73017 26.3354 5.76145 26.4902C5.78817 26.6272 5.91018 26.7213 6.04312 26.7213C6.06348 26.7213 6.08075 26.7203 6.10323 26.7164C7.39329 26.4496 8.34907 25.8107 8.95019 24.8177C9.77499 23.448 9.73345 21.7179 9.58113 20.588C10.4436 21.4987 11.5903 22.1345 13.12 22.2148C13.1343 22.216 13.1462 22.216 13.1615 22.216C13.7548 22.216 14.7114 21.6287 15.6281 20.7052C15.6866 20.6457 15.77 20.5543 15.8462 20.472C15.763 21.7991 15.6502 24.3605 15.9093 25.6114C15.9374 25.7473 16.0575 25.8405 16.1914 25.8405C16.2118 25.8405 16.2302 25.8385 16.2515 25.8346C16.4056 25.8028 16.5073 25.6491 16.4762 25.4943C16.3115 24.7037 16.3095 23.3021 16.3493 22.0719C16.3869 22.0473 16.424 22.0136 16.4475 21.9677C17.9186 19.1864 18.5633 16.7232 18.6536 14.597C19.6436 17.3265 19.1843 21.195 17.249 26.1409C17.1905 26.2898 17.265 26.4584 17.4127 26.5149C17.4465 26.5288 17.4821 26.5358 17.518 26.5358C17.632 26.5358 17.7431 26.4673 17.7868 26.3522C19.9472 20.8309 20.3242 16.5624 18.9087 13.6645C18.8294 13.4998 18.729 13.361 18.638 13.2082C18.3939 10.0839 16.8603 7.83908 15.0331 6.59561C10.4408 3.473 10.784 1.80092 10.7969 1.75238C10.845 1.60397 10.7656 1.44481 10.6164 1.39268C10.466 1.33859 10.3005 1.41907 10.2499 1.56976C10.1793 1.77469 9.69777 3.66474 14.7098 7.07227C16.0549 7.98732 17.2254 9.49372 17.77 11.5341C16.832 10.3273 15.7845 9.37562 14.5767 8.66583C10.7133 6.39507 10.1181 2.48432 10.1142 2.44457C10.0907 2.2903 9.94947 2.17626 9.79324 2.19842C9.63896 2.2178 9.52493 2.35921 9.54138 2.51543C9.54432 2.53075 9.60834 3.20534 9.45797 4.20185C9.44364 4.23215 9.41725 4.25642 9.41432 4.29308C9.41432 4.29796 9.41041 4.37143 9.40829 4.48791C9.18559 5.70515 8.64246 7.30914 7.34409 8.78573L7.28105 8.8561C6.65271 9.57029 5.8908 10.4497 5.48956 11.8008C5.1051 7.40639 5.90269 4.82529 6.91353 3.33241C8.36927 1.18269 10.3224 1.07517 10.4058 1.07224C10.4361 1.07126 10.4688 1.06426 10.499 1.05188C10.5366 1.03754 14.1103 -0.323387 16.8803 1.70008C19.46 3.58427 20.5629 7.71233 20.1652 13.9276C20.1463 14.0079 18.5215 22.0324 22.8107 29.8511C22.8633 29.9464 22.9605 30 23.0627 30C23.1114 30 23.157 29.9881 23.2024 29.9641C23.3414 29.8889 23.3931 29.7123 23.3145 29.5733C21.0597 25.4629 20.4865 21.3064 20.4329 18.3186C20.8278 19.7381 21.6224 21.3421 23.1806 22.8003L23.3492 22.956C24.4532 23.9737 25.4949 24.937 23.4375 28.885C23.3652 29.0269 23.4157 29.2006 23.5595 29.275C23.6003 29.2969 23.6478 29.3067 23.6925 29.3067C23.7977 29.3067 23.8958 29.2511 23.9482 29.153C26.2082 24.809 24.8949 23.5968 23.7373 22.5294ZM7.05689 25.7691C7.05151 25.7563 7.05884 25.7444 7.05395 25.7315C7.02414 25.6732 4.78026 21.1823 5.65719 16.5569C6.15862 18.876 6.9031 21.5236 7.97389 24.574C8.01853 24.7019 8.14755 24.7614 8.27739 24.7475C7.96151 25.177 7.55538 25.5182 7.05689 25.7691ZM8.51751 24.3934C8.51556 24.3895 8.51947 24.3864 8.51751 24.3815C7.26915 20.8264 6.46667 17.8346 5.98203 15.2872C6.22166 14.5507 6.55692 13.823 7.00476 13.1173C7.07269 14.3993 7.39915 17.3465 8.7938 19.5497C8.79478 19.5596 8.78729 19.5686 8.78989 19.5764C8.79885 19.606 9.59726 22.4312 8.51751 24.3934ZM15.2153 20.2954C14.2139 21.3082 13.4194 21.6415 13.146 21.6365C7.53795 21.3498 7.55636 12.5614 7.55734 12.4731C7.55734 12.42 7.52704 12.3793 7.50179 12.3368C8.44714 10.9679 9.42572 9.24285 9.81849 7.0089C10.2248 8.13687 11.0233 9.28944 12.5767 9.75177C14.4371 10.3052 16.6651 11.2104 17.9889 13.2469C17.9889 13.2574 17.978 13.2652 17.9788 13.2758C18.211 16.9615 15.9216 19.5813 15.2153 20.2954ZM16.4037 20.732C16.4353 20.1883 16.4656 19.8093 16.4711 19.7132C16.7562 19.3371 17.0643 18.871 17.3578 18.3384C17.1099 19.1031 16.7969 19.9017 16.4037 20.732ZM10.0373 4.24648C10.6122 5.68088 11.8169 7.71152 14.2769 9.15683C15.0486 9.61069 15.7485 10.1735 16.4017 10.8392C15.2278 10.0396 13.9164 9.54765 12.7409 9.19951C10.5714 8.55473 10.0938 6.36933 9.99752 5.15469C10.0014 4.95334 9.99312 4.74449 9.9871 4.5363C10.0036 4.43839 10.0249 4.33771 10.0373 4.24648ZM7.70754 9.23209L7.76944 9.16074C8.42563 8.41626 8.89187 7.64847 9.23756 6.9079C8.8298 9.20635 7.77889 10.976 6.81269 12.333C6.39011 12.9254 6.07016 13.5379 5.79875 14.1563C5.68048 11.5548 6.78956 10.2742 7.70754 9.23209Z" fill="#231F20"/>
</g>
<defs>
<clipPath id="clip0_234_4447">
<rect width="30" height="30" fill="white"/>
</clipPath>
</defs>
</svg>
