<svg width="20" height="20" viewBox="0 0 30 30" fill="none" xmlns="http://www.w3.org/2000/svg">
<g clip-path="url(#clip0_160_4164)">
<path d="M26.5464 25.1816C26.4274 24.7412 26.2626 24.3466 26.0575 23.9951C25.6987 23.3789 25.2226 22.8992 24.6989 22.5192C24.3052 22.2326 23.8841 22.001 23.4574 21.8005C23.2193 21.6897 22.9813 21.5881 22.7432 21.4929C22.6865 20.8291 21.575 20.289 21.6007 18.3471C21.6135 17.3492 22.5894 15.3844 21.3645 13.7988C21.5165 13.645 21.6593 13.4674 21.7875 13.2623C22.042 12.8631 22.2453 12.3669 22.3825 11.7553C22.421 11.585 22.4393 11.4166 22.4393 11.2499C22.4393 10.9029 22.3569 10.5724 22.2196 10.2758C22.1244 10.0707 22.0017 9.88213 21.8607 9.71185C21.9339 9.44449 22.0218 9.0856 22.0988 8.66449C22.2068 8.08037 22.2965 7.38 22.2965 6.64301C22.2965 6.16693 22.2599 5.67527 22.1629 5.19006C22.0896 4.8266 21.9834 4.4659 21.8333 4.11978C21.608 3.59977 21.2803 3.11086 20.8244 2.70803C20.4014 2.33355 19.8722 2.03602 19.2332 1.84377C18.964 1.5215 18.6857 1.24682 18.3964 1.01795C17.9112 0.629766 17.4003 0.371602 16.8785 0.214102C16.3585 0.0567774 15.8311 0 15.3056 0C15.0273 0 14.7489 0.0164648 14.4724 0.0403125C14.2124 0.0641016 13.9964 0.091582 13.8022 0.123633C13.5129 0.172148 13.2749 0.23625 13.0442 0.316816C12.8134 0.396445 12.5901 0.488965 12.2989 0.604277C12.189 0.647285 12.0426 0.712324 11.8668 0.800215C11.561 0.954961 11.1673 1.18289 10.7444 1.49783C10.1109 1.97021 9.41322 2.63672 8.8676 3.53941C8.59479 3.9917 8.36223 4.5007 8.1974 5.07199C8.03445 5.64234 7.93924 6.27316 7.93924 6.96258C7.93924 7.39195 7.97586 7.84605 8.05643 8.32031C8.05643 8.35512 8.05824 8.38529 8.06012 8.41734C8.06381 8.47688 8.06926 8.53822 8.07477 8.60227C8.08578 8.69748 8.09674 8.79451 8.10588 8.87695C8.10957 8.91814 8.1132 8.95477 8.11502 8.98318C8.11684 8.99783 8.11684 9.00973 8.11871 9.01799V9.02807V9.03082V9.08578L8.2359 9.60217C8.06744 9.78527 7.92277 9.99035 7.81109 10.2146C7.65359 10.5268 7.56025 10.8784 7.56025 11.2519C7.56025 11.4168 7.57859 11.5852 7.61885 11.7555H7.61697C7.71037 12.1638 7.83119 12.5209 7.97586 12.8312C8.16811 13.2441 8.40617 13.5755 8.66984 13.8346C7.48695 15.4139 8.4483 17.3566 8.46107 18.3473C8.48674 20.2644 7.4027 20.8155 7.32031 21.4674C7.30197 21.4765 7.28369 21.483 7.26354 21.4912C6.78014 21.6844 6.2876 21.9041 5.82066 22.1797C5.47092 22.3866 5.13219 22.6246 4.82275 22.9085C4.35764 23.3351 3.95668 23.8652 3.68018 24.5216C3.40186 25.179 3.24805 25.9571 3.24805 26.8754C3.24805 27.0045 3.27553 27.129 3.31947 27.2426C3.3616 27.3497 3.41838 27.4477 3.48611 27.5411C3.61432 27.715 3.77908 27.8697 3.98053 28.0199C4.33578 28.2808 4.80635 28.5262 5.41607 28.756C6.32979 29.1012 7.55293 29.4088 9.13678 29.6349C10.7188 29.8592 12.6597 30.0002 14.9998 30.0002C17.0287 30.0002 18.7572 29.8949 20.2129 29.72C21.3042 29.5891 22.2417 29.4197 23.0382 29.2247C23.6352 29.0792 24.1533 28.9199 24.5983 28.7514C24.9297 28.6251 25.2226 28.4933 25.4753 28.3577C25.6658 28.257 25.8342 28.1527 25.9825 28.0455C26.206 27.8844 26.3854 27.7169 26.5227 27.5283C26.5904 27.4349 26.6454 27.3342 26.6875 27.2243C26.7279 27.1162 26.7516 26.9972 26.7516 26.8755C26.7515 26.2464 26.6801 25.6842 26.5464 25.1816ZM11.2846 6.84633C13.9286 7.43408 18.552 4.6234 18.552 4.6234C18.552 4.6234 18.607 5.90514 19.4877 7.0807C19.8356 7.54395 20.1213 8.26723 20.3355 8.95389C20.2787 8.84584 20.1433 8.8074 19.9418 8.78086C19.4877 8.72045 18.8139 8.68107 18.0558 8.7177C15.8036 8.82756 15.9702 9.03264 15.0858 9.03264C14.2014 9.03264 14.368 8.82756 12.1158 8.7177C11.3577 8.68107 10.6839 8.72045 10.2298 8.78086C10.1529 8.79094 10.0851 8.80377 10.0283 8.82023C10.3068 8.47781 10.7243 7.93764 11.2846 6.84633ZM19.9088 10.3802C19.907 10.3931 19.8978 11.6839 19.0189 12.1271C18.7204 12.2773 18.3469 12.3596 17.966 12.3605C17.5632 12.3605 17.1952 12.2699 16.9022 12.0978C16.5781 11.9074 16.3602 11.6254 16.2522 11.2601C16.2284 11.1749 16.2045 11.0898 16.1807 11.0083C16.1111 10.7575 15.9244 10.0589 16.3217 9.75129C16.5763 9.55172 17.3709 9.42627 18.1326 9.42627C18.8248 9.42627 19.5297 9.51967 19.7366 9.7357C19.8722 9.87674 19.9254 10.1312 19.9088 10.3802ZM13.9909 11.0083C13.9689 11.0898 13.9451 11.1749 13.9194 11.2601C13.8132 11.6254 13.5935 11.9074 13.2712 12.0978C12.9764 12.2699 12.6083 12.3605 12.2074 12.3605C11.8265 12.3596 11.453 12.2772 11.1527 12.1271C10.2738 11.6839 10.2646 10.3931 10.2646 10.3802C10.2482 10.1312 10.3013 9.87668 10.4349 9.7357C10.6437 9.51961 11.3486 9.42627 12.0407 9.42627C12.8006 9.42627 13.5953 9.55172 13.8516 9.75129C14.2491 10.0589 14.0605 10.7575 13.9909 11.0083ZM8.57281 11.5393C8.55084 11.4404 8.53982 11.3452 8.53982 11.2519C8.53982 11.0422 8.59109 10.8435 8.68631 10.6522C8.76506 10.4947 8.87492 10.3455 9.00857 10.21C9.23381 10.5506 9.41873 10.8197 9.48647 10.8875C9.61649 11.0157 9.68059 10.8912 9.68973 10.6513C9.77029 11.187 10.0248 12.0722 10.847 12.5099C12.0317 13.1398 13.8023 12.9036 14.401 11.5028C14.6738 10.8692 14.6775 10.2521 15.0859 10.2521C15.4942 10.2521 15.4997 10.8692 15.7707 11.5028C16.3713 12.9035 18.1401 13.1398 19.3248 12.5099C20.5094 11.88 20.5186 10.3218 20.5186 10.2119C20.5186 10.1561 20.5717 10.113 20.6486 10.1038C20.7494 10.5268 20.8006 10.8143 20.8006 10.8143C20.8006 10.8143 20.9142 10.5982 21.0845 10.3089C21.1852 10.4279 21.2694 10.5561 21.3317 10.6898C21.4159 10.8683 21.4599 11.056 21.4599 11.2501C21.4599 11.3435 21.4488 11.4405 21.4269 11.5395C21.3481 11.8883 21.2493 12.1767 21.1375 12.4165C20.9691 12.7736 20.775 13.0208 20.5736 13.2021C20.3703 13.3833 20.1561 13.5005 19.9309 13.5829L19.7148 13.6617L19.6378 13.8796C19.4035 14.5424 19.1746 15.0752 18.9438 15.5028C18.715 15.9304 18.4861 16.2508 18.248 16.5016L18.1546 16.6005L18.1254 16.7342C18.0191 17.2231 17.9129 17.7633 17.9129 18.4023C17.9129 18.6001 17.9221 18.8051 17.9459 19.0212C17.9716 19.2758 18.0302 19.5138 18.1162 19.7335C18.1217 19.7445 18.1254 19.7537 18.129 19.7646L15.1536 21.3281L11.8559 19.7992C11.9566 19.5611 12.0262 19.3011 12.0554 19.021C12.0774 18.8049 12.0866 18.5998 12.0866 18.4021C12.0866 17.763 11.9822 17.2211 11.8742 16.7321L11.8449 16.6003L11.7515 16.5014C11.5153 16.2496 11.2863 15.9292 11.0557 15.5016C10.8268 15.075 10.5979 14.5421 10.3635 13.8793L10.2866 13.6632L10.0705 13.5826C9.92029 13.5277 9.77568 13.4572 9.63465 13.3629C9.42406 13.221 9.22268 13.0278 9.03957 12.7385C8.85658 12.4502 8.69182 12.063 8.57281 11.5393ZM16.201 21.5534L18.4752 20.3568C18.5393 20.4373 18.6052 20.5151 18.6766 20.5875C18.8268 20.7422 18.9915 20.8777 19.1673 21.0004L16.2339 25.5799L15.908 23.3323L16.7393 22.4506L16.201 21.5534ZM14.3095 23.3322L14.0019 25.4489L10.7921 21.0278C10.8744 20.972 10.9532 20.9143 11.0301 20.8539C11.2023 20.7165 11.3597 20.5618 11.4989 20.3888L14.0148 21.5561L13.4783 22.4505L14.3095 23.3322ZM25.7481 26.9256C25.7151 26.9806 25.6382 27.0721 25.5082 27.1765C25.3947 27.2681 25.2445 27.3687 25.0523 27.4731C24.719 27.6562 24.2649 27.8476 23.6882 28.028C22.8239 28.3008 21.6832 28.5498 20.2421 28.7293C18.8029 28.9087 17.0652 29.0204 14.9998 29.0204C13.0058 29.0204 11.3157 28.9161 9.90395 28.7476C8.84744 28.6204 7.94656 28.4565 7.19398 28.2734C6.63002 28.136 6.15025 27.9859 5.7493 27.8348C5.449 27.7204 5.19447 27.605 4.98576 27.4942C4.82826 27.41 4.69643 27.3267 4.58844 27.2498C4.4273 27.1344 4.32477 27.0301 4.2735 26.9578C4.24783 26.9221 4.23506 26.8964 4.23137 26.8818C4.22955 26.8763 4.22768 26.8726 4.22768 26.8717C4.22768 26.3233 4.28996 25.8546 4.39795 25.4462C4.49135 25.0891 4.62137 24.7797 4.77881 24.506C5.05531 24.0271 5.41783 23.65 5.84814 23.3331C6.17041 23.0951 6.53111 22.8909 6.91385 22.7088C7.48695 22.436 8.1077 22.2144 8.71742 21.9901C9.23012 21.8006 9.73367 21.6101 10.1987 21.3758L15.2671 28.3594L19.7569 21.3519C19.9821 21.4673 20.2147 21.5735 20.4545 21.6724C21.0569 21.9196 21.6996 22.1329 22.3186 22.3792C22.7818 22.5623 23.2341 22.7628 23.6442 23.0017C23.9537 23.1812 24.2393 23.3808 24.4938 23.6106C24.8747 23.9558 25.1878 24.364 25.4112 24.8878C25.6364 25.4115 25.7719 26.0541 25.7719 26.8726C25.7719 26.8763 25.7664 26.8963 25.7481 26.9256Z" fill="#231F20"/>
<path d="M22.5879 26.3193H18.6694V27.006H22.5879V26.3193Z" fill="#231F20"/>
</g>
<defs>
<clipPath id="clip0_160_4164">
<rect width="30" height="30" fill="white"/>
</clipPath>
</defs>
</svg>
