<svg width="20" height="20" viewBox="0 0 30 30" fill="none" xmlns="http://www.w3.org/2000/svg">
<g clip-path="url(#clip0_161_4187)">
<path d="M29.6392 27.9157L26.4471 8.83147C26.2628 7.72991 25.2043 6.83366 24.0874 6.83366H22.0709C21.9428 3.04378 18.8203 0 14.9998 0C11.1792 0 8.05672 3.04378 7.92865 6.83366H5.91215C4.79529 6.83366 3.73667 7.72985 3.55246 8.83147L0.360315 27.9157C0.268272 28.4662 0.402573 28.9879 0.738482 29.3848C1.07439 29.7816 1.56681 30.0001 2.12493 30.0001H27.8745C28.4326 30.0001 28.9251 29.7816 29.261 29.3848C29.597 28.9879 29.7313 28.4662 29.6392 27.9157ZM1.47199 24.4483H14.2793C14.4241 24.4483 14.5415 24.3309 14.5415 24.1861C14.5415 24.0413 14.4241 23.9239 14.2793 23.9239H1.55972L2.91661 15.8115H6.54739C6.69218 15.8115 6.80957 15.6941 6.80957 15.5493C6.80957 15.4045 6.69218 15.2871 6.54739 15.2871H3.00428L3.34321 13.2608H10.3219C10.4667 13.2608 10.5841 13.1434 10.5841 12.9986C10.5841 12.8538 10.4667 12.7364 10.3219 12.7364H3.43093L3.84229 10.2771H26.1573L28.2148 22.5781H22.034C21.8892 22.5781 21.7718 22.6955 21.7718 22.8402C21.7718 22.985 21.8892 23.1024 22.034 23.1024H28.3025L28.5156 24.3762H27.07C26.9252 24.3762 26.8078 24.4936 26.8078 24.6384C26.8078 24.7832 26.9252 24.9006 27.07 24.9006H28.6033L28.8703 26.497H1.1293L1.47199 24.4483ZM14.9998 0.524375C18.5311 0.524375 21.4183 3.33299 21.5461 6.83366H20.309C20.2478 5.50286 19.7037 4.2504 18.7606 3.28351C17.7508 2.24821 16.4152 1.67806 14.9998 1.67806C13.5841 1.67806 12.2485 2.24747 11.239 3.28154C10.295 4.24843 9.75076 5.50168 9.69037 6.83372H8.45334C8.58122 3.33299 11.4684 0.524375 14.9998 0.524375ZM19.7844 6.83366H10.215C10.3424 4.25799 12.4398 2.20244 14.9998 2.20244C17.5585 2.20244 19.6552 4.25768 19.7844 6.83366ZM5.91215 7.35803H24.0875C24.9448 7.35803 25.7886 8.07242 25.93 8.91796L26.0696 9.75264H3.93001L4.06962 8.91796C4.21102 8.07242 5.05483 7.35803 5.91215 7.35803ZM28.8608 29.0459C28.6262 29.323 28.276 29.4756 27.8746 29.4756H2.12499C1.72363 29.4756 1.37335 29.323 1.13873 29.0459C0.904061 28.7688 0.811339 28.3981 0.877534 28.0022L1.04157 27.0214H28.9579L29.122 28.0022C29.1882 28.3981 29.0955 28.7687 28.8608 29.0459Z" fill="#231F20"/>
</g>
<defs>
<clipPath id="clip0_161_4187">
<rect width="30" height="30" fill="white"/>
</clipPath>
</defs>
</svg>
