<svg width="20" height="20" viewBox="0 0 30 30" fill="none" xmlns="http://www.w3.org/2000/svg">
<path d="M15 3.75195C14.6095 3.75195 14.293 4.06851 14.293 4.45901V4.91355C14.293 5.30404 14.6095 5.6206 15 5.6206C15.3905 5.6206 15.7071 5.30404 15.7071 4.91355V4.45901C15.7071 4.06841 15.3905 3.75195 15 3.75195Z" fill="#231F20"/>
<path d="M15 18.4834C14.6095 18.4834 14.293 18.8 14.293 19.1905V20.0414C14.293 20.4319 14.6095 20.7485 15 20.7485C15.3905 20.7485 15.7071 20.4319 15.7071 20.0414V19.1905C15.7071 18.8 15.3905 18.4834 15 18.4834Z" fill="#231F20"/>
<path d="M15 14.7012C14.6095 14.7012 14.293 15.0177 14.293 15.4082V16.2592C14.293 16.6497 14.6095 16.9663 15 16.9663C15.3905 16.9663 15.7071 16.6497 15.7071 16.2592V15.4082C15.7071 15.0177 15.3905 14.7012 15 14.7012Z" fill="#231F20"/>
<path d="M15 7.1377C14.6095 7.1377 14.293 7.45425 14.293 7.84475V8.69574C14.293 9.08624 14.6095 9.4028 15 9.4028C15.3905 9.4028 15.7071 9.08624 15.7071 8.69574V7.84475C15.7071 7.45425 15.3905 7.1377 15 7.1377Z" fill="#231F20"/>
<path d="M15 10.9189C14.6095 10.9189 14.293 11.2355 14.293 11.626V12.4769C14.293 12.8674 14.6095 13.1839 15 13.1839C15.3905 13.1839 15.7071 12.8674 15.7071 12.4769V11.626C15.7071 11.2354 15.3905 10.9189 15 10.9189Z" fill="#231F20"/>
<path d="M15 22.2646C14.6095 22.2646 14.293 22.5812 14.293 22.9717V23.4262C14.293 23.8167 14.6095 24.1333 15 24.1333C15.3905 24.1333 15.7071 23.8167 15.7071 23.4262V22.9717C15.7071 22.5812 15.3905 22.2646 15 22.2646Z" fill="#231F20"/>
<path d="M27.0704 20.6921C24.7749 20.6921 22.9075 18.0511 22.9075 14.8049C22.9075 11.5586 24.7749 8.9175 27.0704 8.9175C27.4361 8.9175 27.7731 8.71992 27.9518 8.40084C28.1304 8.08176 28.1226 7.69116 27.9315 7.37945L25.1971 2.92065C25.0354 2.65702 24.7619 2.48187 24.4546 2.44561C24.1473 2.40904 23.8407 2.51571 23.6218 2.73439C22.6709 3.68528 21.1239 3.68508 20.1731 2.73439C19.7125 2.27389 19.4588 1.66138 19.4587 1.00998C19.4586 0.452213 19.0064 0 18.4487 0H11.5512C10.9935 0 10.5413 0.452213 10.5412 1.00998C10.541 1.66138 10.2873 2.27389 9.82682 2.73439C8.87613 3.68528 7.32889 3.68508 6.3781 2.73439C6.15922 2.51571 5.85195 2.40904 5.54529 2.44561C5.23813 2.48187 4.9645 2.65702 4.80278 2.92065L2.06849 7.37945C1.87729 7.69116 1.86951 8.08176 2.04819 8.40084C2.22687 8.71992 2.56394 8.9175 2.92959 8.9175C5.2251 8.9175 7.09253 11.5586 7.09253 14.8049C7.09253 18.0511 5.2251 20.6921 2.92959 20.6921C2.58515 20.6921 2.26445 20.8677 2.0788 21.1578C1.89304 21.4478 1.86809 21.8126 2.01243 22.1254L3.73674 25.8619C3.92472 26.2692 4.35875 26.5042 4.80228 26.4377C4.87389 26.4272 12.0049 25.4187 14.0366 29.4449C14.2068 29.7821 14.551 29.9963 14.9286 29.9999C14.9319 29.9999 14.9351 29.9999 14.9384 29.9999C15.3124 29.9999 15.6561 29.7931 15.8312 29.4622C18.0153 25.3344 25.1522 26.1449 25.224 26.1536C25.6481 26.2054 26.0586 25.9847 26.2496 25.6026L27.9739 22.1538C28.1305 21.8407 28.1137 21.4689 27.9297 21.1711C27.7457 20.8734 27.4205 20.6921 27.0704 20.6921ZM24.7484 24.0879C22.8498 23.9771 17.7243 24.0075 14.9467 27.2024C12.8094 24.7425 9.15562 24.296 6.78335 24.296C6.17942 24.296 5.65872 24.325 5.26712 24.357L4.40572 22.4904C5.53933 22.1415 6.57002 21.389 7.39556 20.2882C8.50291 18.8117 9.1127 16.8645 9.1127 14.805C9.1127 12.7454 8.50291 10.7982 7.39556 9.32173C6.60891 8.27286 5.6363 7.54015 4.56562 7.17157L5.94943 4.91505C7.64363 5.84837 9.82066 5.59746 11.2553 4.16295C11.854 3.56427 12.2614 2.8253 12.447 2.02016H17.5528C17.7384 2.8253 18.1458 3.56427 18.7445 4.16295C20.1792 5.59756 22.3562 5.84837 24.0504 4.91505L25.4342 7.17157C24.3635 7.54015 23.3909 8.27286 22.6043 9.32163C21.497 10.7981 20.8872 12.7454 20.8872 14.8049C20.8872 16.8644 21.497 18.8116 22.6043 20.2881C23.42 21.3756 24.4357 22.1232 25.5533 22.4775L24.7484 24.0879Z" fill="#231F20"/>
</svg>
