<svg width="16" height="20" viewBox="0 0 16 20" fill="none" xmlns="http://www.w3.org/2000/svg">
<g clip-path="url(#clip0_196_4384)">
<path d="M7.82694 0.750004C7.66355 0.750004 7.54986 0.814634 7.4233 0.885259C7.29675 0.955936 7.167 1.04302 7.04021 1.13135C6.91343 1.21969 6.78897 1.31 6.68483 1.37793C6.58069 1.44581 6.48567 1.49118 6.47322 1.49463C6.46083 1.4986 6.35659 1.50532 6.23296 1.50002C6.10933 1.49473 5.95968 1.48135 5.8064 1.46926C5.65312 1.4573 5.49605 1.44521 5.35166 1.44827C5.20727 1.45091 5.07663 1.45375 4.93514 1.53665C4.79365 1.61968 4.72668 1.73539 4.65188 1.86087C4.5771 1.98641 4.50851 2.1272 4.44219 2.2681C4.37591 2.40898 4.31264 2.54845 4.25589 2.66019C4.19914 2.77191 4.13985 2.85845 4.13075 2.86771C4.1215 2.87697 4.03391 2.93957 3.92392 2.9971C3.81393 3.05476 3.67666 3.11923 3.53797 3.18655C3.39926 3.25391 3.26075 3.32347 3.1372 3.39944C3.01365 3.47543 2.9022 3.54382 2.82051 3.68753C2.7388 3.83125 2.73658 3.96372 2.73353 4.11038C2.73076 4.25705 2.73908 4.4166 2.75119 4.57229C2.76311 4.72799 2.77587 4.87982 2.78178 5.0054C2.78733 5.13094 2.77993 5.23689 2.77716 5.24954C2.77346 5.26283 2.72891 5.35912 2.66204 5.46487C2.59512 5.57062 2.50874 5.69645 2.42178 5.82522C2.3348 5.95395 2.24633 6.08339 2.17674 6.21194C2.10713 6.34054 2.04395 6.45859 2.04395 6.62454C2.04395 6.79049 2.10717 6.90566 2.17674 7.03421C2.24634 7.1628 2.33482 7.29459 2.42178 7.42337C2.50876 7.55209 2.59516 7.67843 2.66204 7.78421C2.72897 7.88995 2.77382 7.98445 2.77716 7.9971C2.78086 8.01038 2.78779 8.11809 2.78178 8.24368C2.77624 8.36922 2.76311 8.5211 2.75119 8.67679C2.73926 8.83248 2.73048 8.98959 2.73353 9.13626C2.7363 9.28292 2.73908 9.41783 2.82051 9.56155C2.90222 9.70528 3.01365 9.77367 3.1372 9.84964C3.26076 9.92563 3.39926 9.99468 3.53797 10.062C3.67666 10.1294 3.81393 10.1939 3.92392 10.2515C4.03391 10.3092 4.12163 10.3696 4.13075 10.3789C4.13907 10.3877 4.19268 10.4663 4.24634 10.5689L2.564 13.5318C2.54181 13.5708 2.53039 13.6153 2.53097 13.6605C2.53154 13.7057 2.54408 13.7499 2.56726 13.7883C2.59044 13.8268 2.62339 13.8581 2.6626 13.879C2.70181 13.8998 2.74581 13.9094 2.78993 13.9068L4.21243 13.8199L4.84963 15.1133C4.86948 15.1534 4.89954 15.1873 4.93665 15.2115C4.97376 15.2356 5.01655 15.249 5.06051 15.2504C5.10447 15.2517 5.14798 15.2409 5.18644 15.2191C5.2249 15.1973 5.2569 15.1653 5.27906 15.1265L7.00487 12.0904C7.01679 12.0987 7.02816 12.1064 7.04017 12.1148C7.16696 12.2031 7.29672 12.2907 7.42327 12.3614C7.54981 12.432 7.66351 12.4961 7.8269 12.4961C7.99027 12.4961 8.10397 12.4321 8.23052 12.3614C8.35706 12.2907 8.48682 12.2031 8.61361 12.1148C8.62581 12.1063 8.63727 12.0984 8.64947 12.0899L10.3738 15.1265C10.396 15.1654 10.428 15.1976 10.4665 15.2195C10.505 15.2413 10.5486 15.2522 10.5926 15.2508C10.6367 15.2495 10.6796 15.236 10.7167 15.2118C10.7539 15.1876 10.784 15.1536 10.8037 15.1133L11.441 13.8199L12.8634 13.9068C12.9077 13.9098 12.952 13.9005 12.9915 13.8798C13.031 13.8591 13.0642 13.8278 13.0876 13.7893C13.111 13.7507 13.1237 13.7064 13.1244 13.661C13.125 13.6157 13.1136 13.571 13.0913 13.5318L11.407 10.5698C11.4609 10.4668 11.5145 10.3877 11.5231 10.3789C11.5324 10.3697 11.62 10.3091 11.7299 10.2515C11.8399 10.1938 11.9767 10.1294 12.1154 10.062C12.2541 9.99469 12.3931 9.92561 12.5167 9.84963C12.6402 9.77365 12.7517 9.70527 12.8334 9.56155C12.9151 9.41783 12.9173 9.28292 12.9203 9.13625C12.9231 8.98959 12.9148 8.83248 12.9027 8.67678C12.8908 8.52109 12.8775 8.36926 12.8716 8.24368C12.8661 8.11814 12.8735 8.00973 12.8772 7.99709C12.8809 7.98381 12.9254 7.89003 12.9923 7.78421C13.0592 7.67846 13.1451 7.55216 13.2321 7.42337C13.319 7.29464 13.408 7.16275 13.4776 7.03421C13.5472 6.90561 13.6075 6.79049 13.6075 6.62454C13.6075 6.45859 13.5472 6.34048 13.4776 6.21194C13.408 6.08335 13.319 5.954 13.2321 5.82522C13.1451 5.6965 13.0592 5.57064 12.9923 5.46487C12.9254 5.35913 12.8805 5.26217 12.8772 5.24954C12.8735 5.23625 12.866 5.13093 12.8716 5.0054C12.8772 4.87986 12.8908 4.72798 12.9027 4.57229C12.9146 4.4166 12.9234 4.25705 12.9203 4.11038C12.9176 3.96372 12.9148 3.83125 12.8334 3.68753C12.7516 3.54382 12.6402 3.47541 12.5167 3.39944C12.3931 3.32345 12.2541 3.25391 12.1154 3.18655C11.9767 3.1192 11.8399 3.05472 11.7299 2.9971C11.62 2.93944 11.5322 2.87687 11.5231 2.8677C11.5139 2.85844 11.4547 2.77184 11.398 2.66018C11.3412 2.54846 11.2775 2.40897 11.2112 2.26809C11.1449 2.1272 11.0768 1.98636 11.002 1.86087C10.9272 1.73533 10.8597 1.61963 10.7182 1.53665C10.5768 1.45362 10.4466 1.45133 10.3022 1.44826C10.1578 1.44562 10.0007 1.45784 9.84746 1.46926C9.69418 1.48121 9.54454 1.49418 9.42091 1.50002C9.29728 1.50531 9.19308 1.4986 9.18063 1.49463C9.16825 1.49066 9.0727 1.44595 8.96855 1.37793C8.86441 1.31005 8.74044 1.21967 8.61364 1.13135C8.48687 1.04301 8.35711 0.95594 8.23056 0.885255C8.10401 0.814578 7.99031 0.750004 7.82694 0.750004ZM7.82646 1.24952C7.83635 1.25415 7.91122 1.27363 7.99555 1.32081C8.0939 1.3758 8.21461 1.45829 8.33756 1.54395C8.46051 1.62963 8.58473 1.71876 8.70297 1.7959C8.82121 1.87308 8.92272 1.93913 9.0531 1.97461C9.18349 2.01008 9.30346 2.00482 9.44383 1.99806C9.5842 1.99144 9.73703 1.97619 9.88568 1.96436C10.0343 1.95241 10.1795 1.94391 10.2917 1.9463C10.3881 1.94856 10.4621 1.97017 10.4727 1.9712C10.4801 1.98116 10.5339 2.03514 10.5831 2.11769C10.6412 2.21519 10.705 2.34679 10.7694 2.48341C10.8337 2.62004 10.8965 2.76134 10.9609 2.8882C11.0253 3.01506 11.0804 3.12328 11.1759 3.22023C11.2713 3.3172 11.3777 3.37256 11.5026 3.438C11.6275 3.50349 11.7693 3.56999 11.9038 3.63527C12.0383 3.70062 12.168 3.76563 12.264 3.82472C12.3459 3.875 12.399 3.93014 12.4082 3.93702C12.4091 3.94887 12.4277 4.02365 12.4298 4.12062C12.4325 4.2346 12.4233 4.38224 12.4121 4.53322C12.4007 4.6842 12.3882 4.83938 12.3815 4.98195C12.375 5.12453 12.3666 5.24649 12.4016 5.37892C12.4365 5.51136 12.5019 5.61428 12.5778 5.73439C12.6537 5.85448 12.7438 5.98058 12.8281 6.10548C12.9124 6.23035 12.9914 6.35323 13.0455 6.45314C13.0915 6.53811 13.1109 6.613 13.1157 6.62404C13.1111 6.63368 13.0919 6.70733 13.0455 6.79298C12.9914 6.89288 12.9125 7.01575 12.8281 7.14064C12.7438 7.26551 12.6538 7.39407 12.5778 7.51417C12.5019 7.63426 12.4365 7.73721 12.4016 7.86964C12.3666 8.00209 12.3749 8.12403 12.3815 8.26661C12.388 8.40919 12.4006 8.56435 12.4121 8.71534C12.4237 8.86633 12.4322 9.01152 12.4298 9.1255C12.4279 9.22249 12.4092 9.29723 12.4082 9.30909C12.3989 9.3159 12.3458 9.371 12.264 9.4214C12.168 9.48051 12.0383 9.54802 11.9038 9.61329C11.7693 9.67865 11.6275 9.74264 11.5026 9.80811C11.3777 9.8736 11.2713 9.92897 11.1759 10.0259C11.0804 10.1229 11.0253 10.2311 10.9609 10.3579C10.8965 10.4848 10.8337 10.6285 10.7694 10.7651C10.705 10.9018 10.6412 11.0309 10.5831 11.1284C10.5338 11.2111 10.48 11.2669 10.4727 11.2774C10.4622 11.2778 10.3881 11.2978 10.2917 11.2998C10.1795 11.3025 10.0343 11.2933 9.88568 11.2817C9.73703 11.2698 9.5842 11.2548 9.44383 11.2481C9.30346 11.2414 9.18349 11.2357 9.0531 11.271C8.92271 11.3065 8.82121 11.3731 8.70297 11.4502C8.58473 11.5274 8.46051 11.6189 8.33756 11.7046C8.21461 11.7903 8.0939 11.8704 7.99555 11.9253C7.91115 11.9725 7.83632 11.9919 7.82646 11.9966C7.81555 11.9918 7.74197 11.9721 7.65832 11.9253C7.55997 11.8703 7.43878 11.7903 7.31583 11.7046C7.19288 11.6189 7.06913 11.5273 6.95089 11.4502C6.83265 11.373 6.73115 11.3065 6.60076 11.271C6.47037 11.2355 6.3504 11.2413 6.21003 11.2481C6.06966 11.2547 5.91683 11.2701 5.76819 11.2817C5.61955 11.2937 5.47392 11.3022 5.36169 11.2998C5.26695 11.2975 5.19416 11.2789 5.18161 11.2778C5.17514 11.2685 5.1207 11.2121 5.07079 11.1284C5.01265 11.0309 4.94834 10.9018 4.88403 10.7652C4.8197 10.6285 4.75691 10.4848 4.69249 10.3579C4.62806 10.2311 4.57346 10.1228 4.47801 10.0259C4.38256 9.92892 4.27331 9.87356 4.14842 9.80812C4.02354 9.74263 3.88456 9.67864 3.75005 9.6133C3.61554 9.54794 3.48591 9.48045 3.38989 9.4214C3.30855 9.37141 3.25536 9.31649 3.24563 9.3091C3.24481 9.29738 3.22567 9.22258 3.22364 9.1255C3.22086 9.01152 3.23011 8.86634 3.24175 8.71535C3.25331 8.56436 3.26569 8.4092 3.27235 8.26662C3.27882 8.12404 3.28677 8.00209 3.25183 7.86964C3.21689 7.7372 3.15152 7.63428 3.07557 7.51417C2.99959 7.39408 2.90961 7.26554 2.82527 7.14064C2.74097 7.01577 2.6625 6.89288 2.60841 6.79298C2.5621 6.70743 2.54278 6.63372 2.53816 6.62404C2.54278 6.61295 2.56238 6.53805 2.60841 6.45314C2.66249 6.35324 2.74094 6.23037 2.82527 6.10548C2.90957 5.98061 2.99964 5.85449 3.07557 5.73439C3.15146 5.6143 3.2169 5.51136 3.25183 5.37892C3.28677 5.24648 3.279 5.12453 3.27235 4.98195C3.26588 4.83938 3.25331 4.68421 3.24175 4.53322C3.2302 4.38224 3.22123 4.2346 3.22364 4.12062C3.22548 4.02352 3.2448 3.94876 3.24563 3.93703C3.25534 3.92975 3.30849 3.87483 3.38989 3.82472C3.48591 3.76561 3.61554 3.7006 3.75005 3.63527C3.88456 3.56991 4.02354 3.50341 4.14842 3.438C4.27331 3.37251 4.38256 3.31715 4.47801 3.22023C4.57346 3.12325 4.62805 3.01505 4.69249 2.8882C4.75691 2.76133 4.81971 2.62004 4.88403 2.48342C4.94836 2.3468 5.01266 2.21522 5.07079 2.11769C5.12034 2.03457 5.17441 1.98014 5.18114 1.97072C5.19279 1.9693 5.26618 1.94834 5.36169 1.9463C5.47392 1.94366 5.61955 1.95282 5.76819 1.96437C5.91683 1.97633 6.06966 1.99129 6.21003 1.99807C6.3504 2.00468 6.47037 2.00996 6.60076 1.97462C6.73115 1.93915 6.83265 1.87304 6.95089 1.79591C7.06913 1.71873 7.19288 1.62963 7.31583 1.54396C7.43878 1.45828 7.55997 1.37576 7.65832 1.32082C7.74197 1.27403 7.81559 1.25438 7.82646 1.24952ZM7.82646 2.85401C5.78197 2.85401 4.11832 4.54494 4.11832 6.62452C4.11832 8.70409 5.78197 10.3926 7.82646 10.3926C9.87094 10.3926 11.5351 8.70409 11.5351 6.62452C11.5351 4.54494 9.87094 2.85401 7.82646 2.85401ZM7.82646 3.35401C9.6083 3.35401 11.0454 4.81675 11.0454 6.62452C11.0454 8.43229 9.6083 9.89258 7.82646 9.89258C6.04461 9.89258 4.60794 8.43229 4.60794 6.62452C4.60794 4.81675 6.04461 3.35401 7.82646 3.35401ZM7.82646 5.29395C7.79236 5.29415 7.75869 5.30164 7.72759 5.31594C7.69649 5.33023 7.66867 5.35102 7.6459 5.37696L7.10804 5.98389L6.18758 5.33789C6.14749 5.31004 6.10021 5.295 6.05174 5.29468C6.00327 5.29436 5.9558 5.30877 5.91536 5.33609C5.87492 5.3634 5.84333 5.40239 5.82461 5.44809C5.80589 5.4938 5.80088 5.54416 5.81022 5.59278L6.22341 7.75C6.23407 7.80715 6.2639 7.85871 6.30776 7.89579C6.35162 7.93287 6.40676 7.95314 6.46367 7.95313H9.18971C9.24663 7.95314 9.30176 7.93287 9.34562 7.89579C9.38948 7.85871 9.41931 7.80715 9.42998 7.75L9.84317 5.59278C9.8525 5.54416 9.84749 5.4938 9.82877 5.44809C9.81005 5.40239 9.77847 5.3634 9.73803 5.33609C9.69759 5.30877 9.65012 5.29436 9.60165 5.29468C9.55318 5.295 9.50589 5.31004 9.4658 5.33789L8.54678 5.98389L8.00701 5.37696C7.98424 5.35102 7.95641 5.33023 7.92532 5.31594C7.89422 5.30164 7.86055 5.29415 7.82646 5.29395ZM7.82646 5.91748L8.32657 6.48243C8.36625 6.52729 8.42051 6.55592 8.47927 6.56302C8.53803 6.57011 8.59731 6.55518 8.64613 6.521L9.24942 6.09668L8.98909 7.45312H6.66381L6.40587 6.09668L7.00726 6.521C7.05603 6.55504 7.11521 6.56989 7.17386 6.5628C7.23251 6.55571 7.28667 6.52716 7.32633 6.48243L7.82646 5.91748ZM4.50476 11.1099C4.55163 11.2066 4.60038 11.3018 4.65188 11.3882C4.72666 11.5137 4.79365 11.627 4.93514 11.71C5.07663 11.793 5.20727 11.7948 5.35166 11.7979C5.49605 11.8005 5.65312 11.7913 5.8064 11.7798C5.95968 11.7678 6.10933 11.7521 6.23296 11.7461C6.35659 11.7408 6.46078 11.7499 6.47322 11.7539C6.48154 11.7567 6.53099 11.7797 6.59408 11.8155L5.08417 14.4771L4.57689 13.4488C4.55558 13.405 4.52219 13.3686 4.48084 13.344C4.4395 13.3195 4.39201 13.3078 4.34427 13.3106L3.21602 13.3809L4.50476 11.1099ZM11.1486 11.1099L12.4374 13.3804L11.311 13.3105C11.2632 13.3077 11.2156 13.3193 11.1742 13.3439C11.1327 13.3684 11.0993 13.4049 11.0779 13.4487L10.5706 14.4766L9.05883 11.8159C9.12243 11.7797 9.17201 11.7563 9.18063 11.7539C9.19302 11.7499 9.29727 11.7404 9.42091 11.7461C9.54454 11.7514 9.69418 11.7677 9.84746 11.7798C10.0007 11.7917 10.1578 11.8009 10.3022 11.7978C10.4466 11.7952 10.5768 11.7928 10.7182 11.7099C10.8597 11.6269 10.9272 11.5136 11.002 11.3882C11.0535 11.3017 11.1018 11.2066 11.1486 11.1099Z" fill="#231F20"/>
</g>
<defs>
<clipPath id="clip0_196_4384">
<rect width="15.6522" height="20" fill="white"/>
</clipPath>
</defs>
</svg>
