<svg width="20" height="20" viewBox="0 0 30 30" fill="none" xmlns="http://www.w3.org/2000/svg">
<path d="M27.2235 10.0525L15.5001 4.19074V3.49998C15.5001 3.224 15.276 3 15.0001 3C14.4486 3 14 2.55152 14 1.99998C14 1.4485 14.4485 0.999961 15.0001 0.999961C15.5516 0.999961 16.0001 1.44844 16.0001 1.99998C16.0001 2.27596 16.2241 2.49996 16.5001 2.49996C16.776 2.49996 17.0001 2.27596 17.0001 1.99998C17.0001 0.897012 16.103 0 15.0001 0C13.8971 0 13.0001 0.897012 13.0001 1.99998C13.0001 2.92998 13.6386 3.71396 14.5001 3.93697V4.19074L2.77653 10.0525C2.56905 10.1565 2.46001 10.389 2.51351 10.615C2.56653 10.8405 2.76804 11 3.00001 11H8.49997V27.5C8.49997 27.5004 8.50003 27.5007 8.50003 27.501V29.5C8.50003 29.776 8.72403 30 9.00001 30C9.27599 30 9.49999 29.776 9.49999 29.5V28H10.5V29.5C10.5 29.776 10.724 30 11 30C11.276 30 11.5 29.776 11.5 29.5V28H11.5492H12.5V29.5C12.5 29.776 12.724 30 13 30C13.2759 30 13.5 29.776 13.5 29.5V28H14.4506H14.4999V29.5C14.4999 29.776 14.7239 30 14.9999 30C15.2759 30 15.4999 29.776 15.4999 29.5V28H16.4999V29.5C16.4999 29.776 16.7239 30 16.9999 30C17.2759 30 17.4999 29.776 17.4999 29.5V27.5C17.4999 27.4997 17.4998 27.4994 17.4998 27.499V21H18.4999V22.5C18.4999 22.776 18.7239 23 18.9999 23C19.2758 23 19.4998 22.776 19.4998 22.5V21H20.4999V22.5C20.4999 22.776 20.7239 23 20.9998 23C21.2758 23 21.4998 22.776 21.4998 22.5V21C21.7758 21 21.9997 20.776 21.9997 20.5V11H26.9998C27.2317 11 27.4328 10.8405 27.4867 10.615C27.5401 10.389 27.431 10.1565 27.2235 10.0525ZM9.50005 10.5V10H11.0123C11.0044 10.1687 11.0002 10.3358 11.0002 10.5C11.0002 12.0984 11.3513 13.71 12.0309 14.4999C11.3512 15.2897 11 16.9015 11 18.5C11 20.0986 11.3512 21.7104 12.0309 22.5002C11.3514 23.29 11.0002 24.9017 11.0002 26.5001C11.0002 26.6643 11.0044 26.8314 11.0123 27.0001H9.49999V10.501C9.49999 10.5006 9.50005 10.5004 9.50005 10.5ZM14.0002 10.5C14.0002 12.7735 13.2902 14 13.0002 14C12.7097 14 12.0002 12.7735 12.0002 10.5C12.0002 10.336 12.0042 10.169 12.0132 10H13.9867C13.9957 10.169 14.0002 10.336 14.0002 10.5ZM13 22C12.7095 22 12 20.7735 12 18.5C12 16.2265 12.7095 15 13 15C13.2905 15 14 16.2265 14 18.5C14 20.7735 13.2905 22 13 22ZM12.0133 27C12.0042 26.831 12.0002 26.664 12.0002 26.5C12.0002 24.2265 12.7098 23 13.0003 23C13.2902 23 14.0003 24.2265 14.0003 26.5C14.0003 26.664 13.9958 26.831 13.9868 27H12.0133ZM16.5 27H14.9879C14.996 26.8313 15.0002 26.6642 15.0002 26.5C15.0002 24.9015 14.6491 23.2897 13.9694 22.4999C14.6489 21.71 15.0001 20.0984 15.0001 18.5C15.0001 16.9016 14.649 15.29 13.9694 14.5001C14.6491 13.7103 15.0002 12.0985 15.0002 10.4999C15.0002 10.3358 14.996 10.1687 14.9879 9.99996H16.5V20.5V27ZM21 20H19.3094C19.4346 19.3868 19.5001 18.7075 19.5001 18C19.5001 16.4016 19.1489 14.7898 18.4693 14C19.1489 13.2102 19.5001 11.5985 19.5001 9.99996H21V20ZM17.5 13.5V10H18.5C18.5 12.2735 17.7905 13.5 17.5 13.5ZM17.5 20V14.5C17.7905 14.5 18.5 15.7264 18.5 17.9999C18.5 18.7095 18.425 19.406 18.2855 19.9999H17.5V20ZM22 10V9.50004C22 9.22406 21.776 9.00006 21.5 9.00006H21.5H18.987H17.0001H17H14.4508H11.5492H9.00007H9.00001C8.72403 9.00006 8.50003 9.22406 8.50003 9.50004V10H5.11806L15.0001 5.05898L24.8821 9.99996H22V10Z" fill="#231F20"/>
</svg>
