<svg width="20" height="20" viewBox="0 0 30 30" fill="none" xmlns="http://www.w3.org/2000/svg">
<path d="M30 17.2308C30 16.7624 29.9096 16.2576 29.6698 15.7767C29.4309 15.2958 29.0367 14.8497 28.4926 14.5211C27.9741 14.2064 27.0131 13.635 25.8248 12.9563L25.9152 12.7879C26.0145 12.6051 25.9461 12.3769 25.763 12.278C25.5799 12.179 25.3519 12.2474 25.2526 12.4305L25.1695 12.5845C24.6277 12.2783 24.0511 11.9577 23.4555 11.6334C23.3518 11.5768 23.2444 11.5198 23.1393 11.4629L23.2239 11.3121C23.3261 11.1308 23.2614 10.9013 23.0797 10.7995C22.8981 10.698 22.6687 10.7628 22.5672 10.944L22.476 11.1069C21.7915 10.7429 21.0987 10.3851 20.4163 10.0458L20.4509 9.98588C20.5553 9.80612 20.4936 9.57561 20.3142 9.47154C20.134 9.36713 19.9039 9.42889 19.7994 9.60865L19.7391 9.71383C18.7192 9.22229 17.7427 8.78694 16.8934 8.47188C16.028 8.15383 15.3673 7.99317 14.7756 7.99024C14.4543 7.98988 14.148 8.04321 13.873 8.16344C13.6675 8.25315 13.4844 8.37924 13.3351 8.52303C13.1108 8.73924 12.9616 8.98405 12.845 9.22117C12.7285 9.45947 12.6417 9.69584 12.5556 9.92934C12.3605 10.4603 12.1674 10.8158 11.9505 11.0834C11.7681 11.308 11.5674 11.4831 11.324 11.632C10.9608 11.854 10.4894 12.0173 9.8618 12.1228C9.23566 12.2283 8.46064 12.2731 7.52602 12.2754H7.51207C6.97975 12.275 6.56719 12.1985 6.23262 12.0827C5.73258 11.9077 5.39215 11.647 5.0884 11.3334C4.78547 11.0194 4.53949 10.6518 4.25273 10.2896C4.05604 10.0426 3.80824 9.85545 3.54498 9.73668C3.28137 9.61721 3.00451 9.56348 2.73539 9.56319C2.40598 9.56389 2.08611 9.64258 1.79824 9.79662C1.51184 9.95031 1.25227 10.1859 1.08387 10.5055C0.276094 12.0464 0 13.6476 0 15.0642C0 16.0058 0.121348 16.8683 0.295605 17.5956C0.435645 18.1739 0.604805 18.6581 0.788965 19.0486C0.851484 20.367 1.03822 21.3722 1.04197 21.3939L1.15594 22.0094H9.76371L10.5681 21.3929L13.0466 22.0094H29.2058L29.3249 21.4006C29.461 20.7034 29.5271 20.0667 29.5271 19.4788C29.5271 19.3442 29.5168 19.2177 29.5103 19.0883C29.6272 18.8857 29.7323 18.668 29.8125 18.4192C29.9257 18.0617 29.9992 17.6595 30 17.2308ZM27.9455 20.5034H13.2304L10.2281 19.756L9.25266 20.5034H2.42953C2.38986 20.1968 2.34498 19.7982 2.3141 19.342L28.0124 19.278C28.0146 19.3456 28.0212 19.4081 28.0212 19.4787C28.0212 19.7897 27.9955 20.1324 27.9455 20.5034ZM28.3779 17.961C28.3088 18.1801 28.211 18.3629 28.1448 18.4492L28.2455 18.5242L2.24133 18.5889C2.10012 18.3404 1.90529 17.8543 1.76004 17.244C1.61191 16.6263 1.50563 15.8752 1.50598 15.0641C1.50598 13.8405 1.74498 12.4872 2.41781 11.2052C2.4259 11.189 2.45238 11.1548 2.51115 11.1231C2.56852 11.0915 2.65307 11.0688 2.73545 11.0695C2.80313 11.0691 2.86746 11.0827 2.9226 11.1081C2.97814 11.1338 3.02666 11.1687 3.07588 11.2298C3.38174 11.6044 3.77848 12.2478 4.46713 12.8034C4.81201 13.0802 5.23336 13.3309 5.74002 13.506C6.24668 13.6817 6.8342 13.7813 7.51213 13.7813H7.51359H7.5283H7.52977C8.8357 13.7769 9.90856 13.7019 10.835 13.4512C11.2976 13.3251 11.7237 13.1526 12.1086 12.9173C12.4932 12.6832 12.8344 12.3857 13.1204 12.0316C13.4771 11.5919 13.7395 11.0727 13.969 10.4495C14.044 10.2459 14.1105 10.0697 14.1741 9.93297C14.2212 9.83037 14.2665 9.75098 14.3065 9.69473C14.3682 9.60977 14.4065 9.57965 14.4568 9.5524C14.508 9.52703 14.5932 9.49692 14.7756 9.49615C15.069 9.49322 15.5963 9.59506 16.3705 9.88404C17.1272 10.1635 18.028 10.5635 18.9817 11.0212L18.0868 12.5672C18.0456 12.5614 18.0045 12.5544 17.961 12.5544C17.4323 12.5544 17.0044 12.9827 17.0044 13.5111C17.0044 14.0397 17.4323 14.4681 17.961 14.4681C18.4897 14.4681 18.9178 14.0397 18.9178 13.5111C18.9178 13.3015 18.8486 13.1092 18.7346 12.9518L19.6604 11.3518C20.345 11.6908 21.0465 12.0522 21.7399 12.421L20.9943 13.7508C20.9554 13.746 20.9171 13.739 20.8774 13.739C20.3487 13.739 19.92 14.1674 19.92 14.6961C19.92 15.2247 20.3487 15.6528 20.8774 15.6528C21.4061 15.6528 21.834 15.2248 21.834 14.6961C21.834 14.4832 21.7627 14.2887 21.6451 14.1299L22.4032 12.7769C22.5135 12.8364 22.626 12.8963 22.7348 12.9559C23.332 13.281 23.9099 13.603 24.454 13.9101L23.9003 14.9347C23.8651 14.9307 23.8305 14.924 23.7937 14.924C23.265 14.924 22.8363 15.352 22.8363 15.8807C22.8363 16.4094 23.265 16.8377 23.7937 16.8377C24.3224 16.8377 24.7504 16.4094 24.7504 15.8807C24.7504 15.6645 24.6761 15.4671 24.5555 15.3072L25.1085 14.2818C26.271 14.9458 27.21 15.5042 27.7101 15.808C28.0248 16.0013 28.2028 16.215 28.3226 16.4503C28.4403 16.6853 28.494 16.9529 28.494 17.2309C28.494 17.4834 28.4484 17.7411 28.3779 17.961Z" fill="#231F20"/>
</svg>
