<svg width="20" height="20" viewBox="0 0 30 30" fill="none" xmlns="http://www.w3.org/2000/svg">
<path d="M8.125 27.5C5.0184 27.5 2.5 24.9816 2.5 21.875C2.5 18.7684 5.0184 16.25 8.125 16.25C11.2316 16.25 13.75 18.7684 13.75 21.875C13.75 24.9816 11.2316 27.5 8.125 27.5ZM21.875 27.5C18.7684 27.5 16.25 24.9816 16.25 21.875C16.25 18.7684 18.7684 16.25 21.875 16.25C24.9816 16.25 27.5 18.7684 27.5 21.875C27.5 24.9816 24.9816 27.5 21.875 27.5ZM8.125 13.75C5.0184 13.75 2.5 11.2316 2.5 8.125C2.5 5.0184 5.0184 2.5 8.125 2.5C11.2316 2.5 13.75 5.0184 13.75 8.125C13.75 11.2316 11.2316 13.75 8.125 13.75ZM21.875 13.75C18.7684 13.75 16.25 11.2316 16.25 8.125C16.25 5.0184 18.7684 2.5 21.875 2.5C24.9816 2.5 27.5 5.0184 27.5 8.125C27.5 11.2316 24.9816 13.75 21.875 13.75ZM21.875 11.25C23.6009 11.25 25 9.85089 25 8.125C25 6.39911 23.6009 5 21.875 5C20.1491 5 18.75 6.39911 18.75 8.125C18.75 9.85089 20.1491 11.25 21.875 11.25ZM8.125 11.25C9.85089 11.25 11.25 9.85089 11.25 8.125C11.25 6.39911 9.85089 5 8.125 5C6.39911 5 5 6.39911 5 8.125C5 9.85089 6.39911 11.25 8.125 11.25ZM21.875 25C23.6009 25 25 23.6009 25 21.875C25 20.1491 23.6009 18.75 21.875 18.75C20.1491 18.75 18.75 20.1491 18.75 21.875C18.75 23.6009 20.1491 25 21.875 25ZM8.125 25C9.85089 25 11.25 23.6009 11.25 21.875C11.25 20.1491 9.85089 18.75 8.125 18.75C6.39911 18.75 5 20.1491 5 21.875C5 23.6009 6.39911 25 8.125 25Z" fill="#231F20"/>
</svg>
