<svg width="20" height="20" viewBox="0 0 30 30" fill="none" xmlns="http://www.w3.org/2000/svg">
<path d="M27.5715 5.71008C27.5205 3.56543 26.1086 1.70051 24.0581 1.06969L21.2252 0.198047C20.7982 0.0665625 20.3552 0 19.9083 0H10.0908C9.64407 0 9.20099 0.0665625 8.7739 0.198047L5.94101 1.06969C3.89064 1.70057 2.4787 3.56543 2.42767 5.71008L2.012 23.1676C2.00333 23.5305 2.19411 23.8603 2.50483 24.0352V25.7133C2.50483 26.0834 2.71044 26.4161 3.04144 26.5816L6.51317 28.3174V29.0292C6.51317 29.5645 6.94864 29.9999 7.48396 29.9999H22.5152C23.0506 29.9999 23.486 29.5645 23.486 29.0292V28.3174L26.9578 26.5815C27.2888 26.416 27.4944 26.0833 27.4944 25.7132V24.0352C27.8051 23.8603 27.9959 23.5305 27.9872 23.1676L27.5715 5.71008ZM18.0007 0.939434C17.7742 2.39209 16.5148 3.5073 14.9996 3.5073C13.4844 3.5073 12.225 2.39209 11.9985 0.939434H18.0007ZM10.0908 0.939434H11.0512C11.2845 2.91164 12.9656 4.44674 14.9995 4.44674C17.0334 4.44674 18.7147 2.91164 18.9479 0.939434H19.9082C19.9453 0.939434 19.9824 0.940371 20.0193 0.941484C19.7818 3.52459 17.6256 5.5115 14.9996 5.5115C13.6861 5.5115 12.4425 5.00912 11.4979 4.09711C10.6235 3.25283 10.0914 2.14096 9.98034 0.941543C10.0171 0.940371 10.054 0.939434 10.0908 0.939434ZM5.5612 26.7911L3.46161 25.7413C3.45089 25.736 3.44427 25.7252 3.44427 25.7133V24.4448L5.56665 25.3545L5.53765 26.4863C5.53501 26.5898 5.54315 26.6918 5.5612 26.7911ZM22.5466 29.0292C22.5466 29.0464 22.5326 29.0605 22.5153 29.0605H7.48396C7.46667 29.0605 7.45267 29.0464 7.45267 29.0292V27.9958H22.5466V29.0292ZM23.3715 26.8956C23.2705 26.9993 23.1351 27.0564 22.9903 27.0564H7.00894V27.0564C6.86415 27.0564 6.72874 26.9992 6.62773 26.8956C6.52665 26.7919 6.47304 26.6551 6.47679 26.5104L6.52911 24.4695L7.67644 24.9528C7.79304 25.0019 7.92452 25.0019 8.04112 24.9528L10.2377 24.0275L12.4344 24.9528C12.551 25.0019 12.6825 25.0019 12.7992 24.9528L14.9952 24.0275L17.1915 24.9528C17.3081 25.002 17.4396 25.002 17.5561 24.9529L19.7547 24.0274L21.9549 24.9529C22.0131 24.9774 22.075 24.9896 22.137 24.9896C22.1989 24.9896 22.2608 24.9774 22.3191 24.9529L23.47 24.4688L23.5224 26.5105C23.5262 26.6552 23.4726 26.792 23.3715 26.8956ZM7.67649 16.9361C7.7931 16.9852 7.92458 16.9852 8.04118 16.9361L10.2378 16.0108L12.4345 16.9361C12.4928 16.9607 12.5548 16.973 12.6169 16.973C12.679 16.973 12.7409 16.9607 12.7993 16.9361L14.9953 16.0109L17.1917 16.9361C17.3083 16.9853 17.4397 16.9853 17.5562 16.9362L19.7548 16.0107L21.955 16.9362C22.0714 16.9852 22.2028 16.9852 22.3192 16.9362L23.2668 16.5376L23.3934 21.4777L22.137 22.0061L19.9368 21.0807C19.8203 21.0316 19.6889 21.0316 19.5724 21.0807L17.374 22.0061L15.1776 21.0807C15.0611 21.0316 14.9295 21.0316 14.8129 21.0807L12.6168 22.006L10.4202 21.0807C10.3036 21.0316 10.1721 21.0316 10.0555 21.0807L7.8589 22.0061L6.60593 21.4782L6.73255 16.5384L7.67649 16.9361ZM6.75833 15.5299L6.78335 14.5556L7.67644 14.9319C7.79304 14.981 7.92452 14.981 8.04112 14.9319L10.2377 14.0065L12.4344 14.9319C12.551 14.981 12.6825 14.981 12.7991 14.9319L14.9951 14.0066L17.1915 14.9319C17.308 14.981 17.4396 14.981 17.556 14.9319L19.7546 14.0065L21.9548 14.9319C22.013 14.9565 22.0749 14.9687 22.1369 14.9687C22.1989 14.9687 22.2608 14.9565 22.319 14.9319L23.2157 14.5547L23.2408 15.5292L22.137 15.9935L19.9367 15.0681C19.8202 15.019 19.6888 15.019 19.5724 15.0681L17.3739 15.9935L15.1775 15.0681C15.061 15.019 14.9295 15.019 14.8128 15.0681L12.6168 15.9934L10.4201 15.0681C10.3035 15.019 10.1721 15.019 10.0554 15.0681L7.85878 15.9935L6.75833 15.5299ZM7.67649 22.9485C7.7931 22.9976 7.92458 22.9976 8.04118 22.9485L10.2378 22.0232L12.4345 22.9485C12.5511 22.9976 12.6826 22.9976 12.7992 22.9485L14.9953 22.0233L17.1916 22.9485C17.3081 22.9977 17.4397 22.9977 17.5562 22.9486L19.7547 22.0232L21.9549 22.9486C22.0132 22.9731 22.0751 22.9853 22.137 22.9853C22.199 22.9853 22.2609 22.9731 22.3191 22.9486L23.4192 22.4859L23.4443 23.4604L22.137 24.0103L19.9368 23.0848C19.8203 23.0358 19.6889 23.0358 19.5724 23.0848L17.374 24.0102L15.1776 23.0849C15.0611 23.0357 14.9295 23.0357 14.8129 23.0849L12.6168 24.0101L10.4201 23.0849C10.3036 23.0358 10.1721 23.0358 10.0555 23.0849L7.85884 24.0102L6.55501 23.461L6.57991 22.4866L7.67649 22.9485ZM26.5549 25.7133C26.5549 25.7252 26.5483 25.736 26.5376 25.7413L24.438 26.7912C24.4561 26.6919 24.4642 26.5899 24.4616 26.4864L24.4326 25.3545L26.5549 24.4449V25.7133ZM27.029 23.2195L24.4066 24.3434L23.9868 7.97326C23.9802 7.71392 23.7639 7.50949 23.5052 7.51576C23.2458 7.52238 23.041 7.73807 23.0477 7.9974L23.19 13.5464L22.137 13.9893L19.9368 13.0639C19.8203 13.0148 19.6889 13.0148 19.5724 13.0639L17.374 13.9893L15.1776 13.0639C15.0611 13.0148 14.9295 13.0148 14.8129 13.0639L12.6168 13.9892L10.4201 13.0639C10.3036 13.0148 10.1721 13.0148 10.0555 13.0639L7.85878 13.9893L6.80913 13.5471L6.95146 7.9974C6.95808 7.73807 6.75323 7.52238 6.49396 7.51576C6.23421 7.50908 6.01899 7.71398 6.01231 7.97326L5.59255 24.3434L2.97019 23.2195C2.95835 23.2144 2.95091 23.2028 2.9512 23.1899L3.36681 5.7324C3.40823 3.9924 4.5538 2.47945 6.21728 1.96758L9.05011 1.09588C9.05081 1.0957 9.05157 1.09553 9.05222 1.09523C9.1973 2.49311 9.82419 3.78697 10.8452 4.77281C11.9659 5.85492 13.4412 6.45088 14.9995 6.45088C16.554 6.45088 18.0267 5.85738 19.1465 4.77984C20.1713 3.79353 20.8014 2.49656 20.9469 1.09529C20.9476 1.09547 20.9482 1.09564 20.9489 1.09588L23.7817 1.96758C25.4452 2.47945 26.5908 3.9924 26.6322 5.7324L27.0479 23.1899C27.0483 23.2028 27.0409 23.2145 27.029 23.2195Z" fill="#231F20"/>
</svg>
